<?xml version="1.0" encoding="UTF-8"?>
<svg id="Réteg_1" data-name="Réteg 1" xmlns="http://www.w3.org/2000/svg" xmlns:xlink="http://www.w3.org/1999/xlink" viewBox="0 0 1000 1000">
  <defs>
    <style>
      .cls-1 {
        fill: url(#Névtelen_színátmenet_54-17);
      }

      .cls-2 {
        fill: url(#Névtelen_színátmenet_54-6);
      }

      .cls-3 {
        fill: url(#Névtelen_színátmenet_54-19);
      }

      .cls-4 {
        fill: url(#Névtelen_színátmenet_54-22);
      }

      .cls-5 {
        fill: url(#Névtelen_színátmenet_54-20);
      }

      .cls-6 {
        fill: url(#Névtelen_színátmenet_54-24);
      }

      .cls-7 {
        fill: url(#Névtelen_színátmenet_54-23);
      }

      .cls-8 {
        fill: url(#Névtelen_színátmenet_54-21);
      }

      .cls-9 {
        fill: url(#Névtelen_színátmenet_54-15);
      }

      .cls-10 {
        fill: url(#Névtelen_színátmenet_54-18);
      }

      .cls-11 {
        fill: url(#Névtelen_színátmenet_54-9);
      }

      .cls-12 {
        fill: url(#Névtelen_színátmenet_54-13);
      }

      .cls-13 {
        fill: url(#Névtelen_színátmenet_54-14);
      }

      .cls-14 {
        fill: url(#Névtelen_színátmenet_54-8);
      }

      .cls-15 {
        fill: url(#Névtelen_színátmenet_54-7);
      }

      .cls-16 {
        fill: url(#Névtelen_színátmenet_54-5);
      }

      .cls-17 {
        fill: url(#Névtelen_színátmenet_54-4);
      }

      .cls-18 {
        fill: url(#Névtelen_színátmenet_54);
      }

      .cls-19 {
        fill: url(#Névtelen_színátmenet_54-12);
      }

      .cls-20 {
        fill: url(#Névtelen_színátmenet_54-11);
      }

      .cls-21 {
        fill: url(#Névtelen_színátmenet_54-10);
      }

      .cls-22 {
        fill: url(#Névtelen_színátmenet_54-16);
      }

      .cls-23 {
        fill: url(#Névtelen_színátmenet_54-2);
      }

      .cls-24 {
        fill: url(#Névtelen_színátmenet_54-25);
      }

      .cls-25 {
        fill: url(#Névtelen_színátmenet_54-3);
      }
    </style>
    <linearGradient id="Névtelen_színátmenet_54" data-name="Névtelen színátmenet 54" x1="358.45" y1="392.26" x2="801.1" y2="457.96" gradientUnits="userSpaceOnUse">
      <stop offset="0" stop-color="#c1b38d"/>
      <stop offset=".28" stop-color="#d4ccb5"/>
      <stop offset=".3" stop-color="#cec6ae"/>
      <stop offset=".39" stop-color="#b6ad93"/>
      <stop offset=".47" stop-color="#a59c7f"/>
      <stop offset=".56" stop-color="#9b9172"/>
      <stop offset=".65" stop-color="#988e6f"/>
      <stop offset="1" stop-color="#7f765e"/>
    </linearGradient>
    <linearGradient id="Névtelen_színátmenet_54-2" data-name="Névtelen színátmenet 54" x1="358.55" y1="391.6" x2="801.2" y2="457.31" xlink:href="#Névtelen_színátmenet_54"/>
    <linearGradient id="Névtelen_színátmenet_54-3" data-name="Névtelen színátmenet 54" x1="356.89" y1="402.78" x2="799.54" y2="468.48" xlink:href="#Névtelen_színátmenet_54"/>
    <linearGradient id="Névtelen_színátmenet_54-4" data-name="Névtelen színátmenet 54" x1="319.44" y1="655.1" x2="762.08" y2="720.81" xlink:href="#Névtelen_színátmenet_54"/>
    <linearGradient id="Névtelen_színátmenet_54-5" data-name="Névtelen színátmenet 54" x1="320.3" y1="649.27" x2="762.95" y2="714.97" xlink:href="#Névtelen_színátmenet_54"/>
    <linearGradient id="Névtelen_színátmenet_54-6" data-name="Névtelen színátmenet 54" x1="321.27" y1="642.77" x2="763.91" y2="708.47" xlink:href="#Névtelen_színátmenet_54"/>
    <linearGradient id="Névtelen_színátmenet_54-7" data-name="Névtelen színátmenet 54" x1="322.55" y1="634.15" x2="765.19" y2="699.86" xlink:href="#Névtelen_színátmenet_54"/>
    <linearGradient id="Névtelen_színátmenet_54-8" data-name="Névtelen színátmenet 54" x1="323" y1="631.06" x2="765.65" y2="696.77" xlink:href="#Névtelen_színátmenet_54"/>
    <linearGradient id="Névtelen_színátmenet_54-9" data-name="Névtelen színátmenet 54" x1="323.88" y1="625.16" x2="766.53" y2="690.87" xlink:href="#Névtelen_színátmenet_54"/>
    <linearGradient id="Névtelen_színátmenet_54-10" data-name="Névtelen színátmenet 54" x1="325.11" y1="616.88" x2="767.76" y2="682.58" xlink:href="#Névtelen_színátmenet_54"/>
    <linearGradient id="Névtelen_színátmenet_54-11" data-name="Névtelen színátmenet 54" x1="325.46" y1="614.5" x2="768.11" y2="680.2" xlink:href="#Névtelen_színátmenet_54"/>
    <linearGradient id="Névtelen_színátmenet_54-12" data-name="Névtelen színátmenet 54" x1="326.33" y1="608.67" x2="768.98" y2="674.37" xlink:href="#Névtelen_színátmenet_54"/>
    <linearGradient id="Névtelen_színátmenet_54-13" data-name="Névtelen színátmenet 54" x1="327.58" y1="600.25" x2="770.23" y2="665.95" xlink:href="#Névtelen_színátmenet_54"/>
    <linearGradient id="Névtelen_színátmenet_54-14" data-name="Névtelen színátmenet 54" x1="328.08" y1="596.88" x2="770.73" y2="662.59" xlink:href="#Névtelen_színátmenet_54"/>
    <linearGradient id="Névtelen_színátmenet_54-15" data-name="Névtelen színátmenet 54" x1="328.94" y1="591.05" x2="771.59" y2="656.76" xlink:href="#Névtelen_színátmenet_54"/>
    <linearGradient id="Névtelen_színátmenet_54-16" data-name="Névtelen színátmenet 54" x1="330.18" y1="582.75" x2="772.82" y2="648.46" xlink:href="#Névtelen_színátmenet_54"/>
    <linearGradient id="Névtelen_színátmenet_54-17" data-name="Névtelen színátmenet 54" x1="331.35" y1="574.82" x2="774" y2="640.52" xlink:href="#Névtelen_színátmenet_54"/>
    <linearGradient id="Névtelen_színátmenet_54-18" data-name="Névtelen színátmenet 54" x1="332.91" y1="564.35" x2="775.56" y2="630.05" xlink:href="#Névtelen_színátmenet_54"/>
    <linearGradient id="Névtelen_színátmenet_54-19" data-name="Névtelen színátmenet 54" x1="335.77" y1="545.07" x2="778.42" y2="610.78" xlink:href="#Névtelen_színátmenet_54"/>
    <linearGradient id="Névtelen_színátmenet_54-20" data-name="Névtelen színátmenet 54" x1="338.16" y1="528.98" x2="780.81" y2="594.68" xlink:href="#Névtelen_színátmenet_54"/>
    <linearGradient id="Névtelen_színátmenet_54-21" data-name="Névtelen színátmenet 54" x1="339.21" y1="521.87" x2="781.86" y2="587.58" xlink:href="#Névtelen_színátmenet_54"/>
    <linearGradient id="Névtelen_színátmenet_54-22" data-name="Névtelen színátmenet 54" x1="339.99" y1="516.64" x2="782.64" y2="582.34" xlink:href="#Névtelen_színátmenet_54"/>
    <linearGradient id="Névtelen_színátmenet_54-23" data-name="Névtelen színátmenet 54" x1="336.75" y1="538.47" x2="779.4" y2="604.18" xlink:href="#Névtelen_színátmenet_54"/>
    <linearGradient id="Névtelen_színátmenet_54-24" data-name="Névtelen színátmenet 54" x1="341.23" y1="508.25" x2="783.88" y2="573.96" xlink:href="#Névtelen_színátmenet_54"/>
    <linearGradient id="Névtelen_színátmenet_54-25" data-name="Névtelen színátmenet 54" x1="334.26" y1="555.26" x2="776.9" y2="620.97" xlink:href="#Névtelen_színátmenet_54"/>
  </defs>
  <g>
    <path class="cls-18" d="M456.58,334.26s-12.56.68-21.95,9.88c-9.75,9.56-10.84,19.74-10.84,19.74l-34.14,121.3c-.27.96.45,1.91,1.45,1.91h26.3c.67,0,1.27-.45,1.45-1.1l34.37-122.12s.61-2.52,1.33-4.02c.7-1.47,2.03-1.52,2.03-1.52h82.13c19.6,0,35.32-15.72,35.32-23.69v-.39h-117.45Z"/>
    <path class="cls-23" d="M476.47,399.13h55.81c0,13.57-11.02,24.59-24.59,24.59h-55.81c0-13.57,11.02-24.59,24.59-24.59Z"/>
    <path class="cls-25" d="M592.95,369.93h-26.3c-.67,0-1.27.45-1.45,1.1l-25.17,89.16h0s-.81,3.18-2.57,3.18h-32.37c-19.6,0-35.32,15.72-35.32,23.69v.39h69.68s9.22-.06,18.44-8.52c9.22-8.45,10.69-15.66,10.69-15.66l25.81-91.43c.27-.96-.45-1.91-1.45-1.91Z"/>
  </g>
  <g>
    <path class="cls-17" d="M320.47,643.31v1.2h-10.14v9.26h8.86v1.2h-8.86v10.52h-1.44v-22.19h11.58Z"/>
    <path class="cls-16" d="M349.49,664.31c-1.66-.96-2.96-2.3-3.9-4.03-.94-1.73-1.41-3.68-1.41-5.85s.47-4.15,1.41-5.86c.94-1.72,2.24-3.06,3.9-4.01,1.66-.96,3.53-1.44,5.6-1.44s3.93.48,5.6,1.44c1.66.96,2.96,2.3,3.9,4.01.94,1.72,1.41,3.67,1.41,5.86s-.47,4.12-1.41,5.85c-.94,1.73-2.24,3.07-3.9,4.03-1.66.96-3.53,1.44-5.6,1.44s-3.93-.48-5.6-1.44ZM359.88,663.25c1.43-.82,2.55-1.99,3.37-3.51s1.23-3.29,1.23-5.31-.41-3.82-1.23-5.34c-.82-1.52-1.95-2.69-3.37-3.51-1.43-.82-3.03-1.23-4.8-1.23s-3.37.41-4.8,1.23c-1.43.82-2.56,1.99-3.39,3.51-.83,1.52-1.25,3.3-1.25,5.34s.42,3.79,1.25,5.31,1.96,2.69,3.39,3.51c1.43.82,3.03,1.23,4.8,1.23s3.37-.41,4.8-1.23Z"/>
    <path class="cls-2" d="M403.55,643.31v1.2h-6.4v20.99h-1.44v-20.99h-6.4v-1.2h14.23Z"/>
    <path class="cls-15" d="M432.18,664.31c-1.66-.96-2.96-2.3-3.9-4.03-.94-1.73-1.41-3.68-1.41-5.85s.47-4.15,1.41-5.86c.94-1.72,2.24-3.06,3.9-4.01,1.66-.96,3.53-1.44,5.6-1.44s3.93.48,5.6,1.44c1.66.96,2.96,2.3,3.9,4.01.94,1.72,1.41,3.67,1.41,5.86s-.47,4.12-1.41,5.85c-.94,1.73-2.24,3.07-3.9,4.03-1.66.96-3.53,1.44-5.6,1.44s-3.93-.48-5.6-1.44ZM442.57,663.25c1.43-.82,2.55-1.99,3.37-3.51s1.23-3.29,1.23-5.31-.41-3.82-1.23-5.34c-.82-1.52-1.95-2.69-3.37-3.51-1.43-.82-3.03-1.23-4.8-1.23s-3.37.41-4.8,1.23c-1.43.82-2.56,1.99-3.39,3.51-.83,1.52-1.25,3.3-1.25,5.34s.42,3.79,1.25,5.31,1.96,2.69,3.39,3.51c1.43.82,3.03,1.23,4.8,1.23s3.37-.41,4.8-1.23ZM440.78,638.47l-6.27,3.92v-1.17l6.27-4.14v1.39Z"/>
    <path class="cls-14" d="M476.51,664.95c-1.09-.51-1.94-1.19-2.54-2.05-.61-.86-.96-1.82-1.04-2.88h1.5c.17,1.16.72,2.19,1.65,3.1.93.91,2.34,1.36,4.24,1.36,1.11,0,2.07-.2,2.89-.6.82-.4,1.45-.95,1.9-1.64s.67-1.46.67-2.31c0-1.07-.26-1.93-.78-2.56-.52-.63-1.17-1.11-1.95-1.42s-1.83-.65-3.15-1.01c-1.45-.38-2.62-.76-3.5-1.14-.89-.38-1.63-.96-2.24-1.75-.61-.79-.91-1.87-.91-3.24,0-1.05.28-2.02.85-2.89.57-.87,1.37-1.56,2.42-2.07,1.04-.51,2.25-.76,3.61-.76,1.98,0,3.58.48,4.8,1.45s1.94,2.16,2.17,3.57h-1.54c-.13-.57-.41-1.15-.85-1.74-.44-.59-1.05-1.08-1.85-1.47-.8-.39-1.75-.58-2.86-.58-1.49,0-2.75.41-3.78,1.22-1.02.81-1.54,1.89-1.54,3.24,0,1.08.27,1.93.8,2.58.53.64,1.19,1.13,1.97,1.45.78.33,1.83.66,3.15,1,1.47.4,2.64.78,3.5,1.15.86.37,1.6.95,2.21,1.74.61.79.91,1.86.91,3.21,0,.99-.27,1.93-.8,2.81-.53.88-1.32,1.61-2.35,2.16-1.03.56-2.29.84-3.76.84s-2.72-.25-3.81-.76Z"/>
    <path class="cls-11" d="M524.75,643.31v1.2h-6.4v20.99h-1.44v-20.99h-6.4v-1.2h14.23Z"/>
    <path class="cls-21" d="M550.28,643.31v13.87c0,2.51.58,4.35,1.73,5.52s2.72,1.75,4.7,1.75,3.51-.58,4.64-1.74c1.13-1.16,1.7-3,1.7-5.53v-13.87h1.44v13.84c0,2.89-.7,5.04-2.11,6.45-1.41,1.41-3.29,2.12-5.66,2.12s-4.27-.71-5.71-2.13-2.16-3.57-2.16-6.43v-13.84h1.44ZM559.39,638.47l-6.27,3.92v-1.17l6.27-4.14v1.39Z"/>
    <path class="cls-20" d="M605.47,646.24c2.06,1.96,3.09,4.69,3.09,8.19s-1.03,6.22-3.09,8.15c-2.06,1.94-4.98,2.91-8.78,2.91h-6.3v-22.19h6.3c3.79,0,6.72.98,8.78,2.94ZM604.43,661.68c1.77-1.74,2.65-4.16,2.65-7.25s-.89-5.55-2.65-7.3c-1.77-1.75-4.35-2.62-7.74-2.62h-4.86v19.78h4.86c3.39,0,5.97-.87,7.74-2.61Z"/>
    <path class="cls-19" d="M635.14,643.31v22.19h-1.44v-22.19h1.44Z"/>
    <path class="cls-12" d="M665.63,664.31c-1.66-.96-2.96-2.3-3.9-4.03-.94-1.73-1.41-3.68-1.41-5.85s.47-4.15,1.41-5.86c.94-1.72,2.24-3.06,3.9-4.01,1.66-.96,3.53-1.44,5.6-1.44s3.93.48,5.6,1.44c1.66.96,2.96,2.3,3.9,4.01.94,1.72,1.41,3.67,1.41,5.86s-.47,4.12-1.41,5.85c-.94,1.73-2.24,3.07-3.9,4.03-1.66.96-3.53,1.44-5.6,1.44s-3.93-.48-5.6-1.44ZM676.02,663.25c1.43-.82,2.55-1.99,3.37-3.51s1.23-3.29,1.23-5.31-.41-3.82-1.23-5.34c-.82-1.52-1.95-2.69-3.37-3.51-1.43-.82-3.03-1.23-4.8-1.23s-3.37.41-4.8,1.23c-1.43.82-2.56,1.99-3.39,3.51-.83,1.52-1.25,3.3-1.25,5.34s.42,3.79,1.25,5.31,1.96,2.69,3.39,3.51c1.43.82,3.03,1.23,4.8,1.23s3.37-.41,4.8-1.23ZM674.23,638.47l-6.27,3.92v-1.17l6.27-4.14v1.39Z"/>
  </g>
  <g>
    <path class="cls-13" d="M204.36,551.07v6.71h-23.08v14.79h17.99v6.71h-17.99v21.94h-8.92v-50.15h31.99Z"/>
    <path class="cls-9" d="M249.34,590.97h-22.76l-3.91,10.25h-9.31l19.48-50.23h10.32l19.48,50.23h-9.39l-3.91-10.25ZM246.83,584.26l-8.84-23.31-8.92,23.31h17.76Z"/>
    <path class="cls-22" d="M303.23,601.22l-12.52-20.06h-6.81v20.06h-8.92v-50.15h18.77c4.17,0,7.7.67,10.6,2.02,2.89,1.35,5.06,3.15,6.49,5.41,1.44,2.26,2.15,4.79,2.15,7.58,0,3.27-1.03,6.24-3.09,8.91-2.06,2.67-5.23,4.49-9.5,5.45l13.45,20.78h-10.64ZM283.91,574.59h9.86c3.34,0,5.85-.77,7.55-2.31s2.54-3.61,2.54-6.21-.84-4.63-2.5-6.1c-1.67-1.47-4.2-2.2-7.59-2.2h-9.86v16.81Z"/>
    <path class="cls-1" d="M361.12,590.97h-22.76l-3.91,10.25h-9.31l19.48-50.23h10.32l19.48,50.23h-9.39l-3.91-10.25ZM358.62,584.26l-8.84-23.31-8.92,23.31h17.76Z"/>
    <path class="cls-10" d="M426.12,565.5c-1.41-2.5-3.36-4.39-5.86-5.67-2.51-1.27-5.4-1.91-8.68-1.91-3.6,0-6.81.75-9.62,2.24-2.82,1.49-5.02,3.61-6.61,6.35-1.59,2.74-2.38,5.92-2.38,9.52s.79,6.8,2.38,9.56c1.59,2.77,3.79,4.9,6.61,6.39,2.82,1.49,6.02,2.24,9.62,2.24,4.85,0,8.79-1.25,11.81-3.75,3.02-2.5,4.87-5.89,5.55-10.18h-20.41v-6.57h29.96v6.42c-.57,3.9-2.07,7.48-4.5,10.75-2.42,3.27-5.58,5.88-9.47,7.83-3.89,1.95-8.2,2.92-12.94,2.92-5.11,0-9.78-1.09-14.01-3.28-4.22-2.19-7.57-5.23-10.05-9.13-2.48-3.9-3.71-8.3-3.71-13.21s1.24-9.31,3.71-13.21,5.84-6.94,10.09-9.13c4.25-2.19,8.91-3.29,13.97-3.29,5.79,0,10.93,1.31,15.45,3.93,4.51,2.62,7.78,6.34,9.81,11.15h-10.72Z"/>
    <path class="cls-3" d="M549.56,594.58h18.38v6.64h-27.3v-50.15h8.92v43.52Z"/>
    <path class="cls-5" d="M645.77,599.96c-2.92-1.18-5.22-2.85-6.89-5.02s-2.5-4.69-2.5-7.58h9.55c.21,2.16,1.13,3.95,2.78,5.34,1.64,1.39,3.95,2.09,6.92,2.09s5.47-.68,7.2-2.06c1.72-1.37,2.58-3.14,2.58-5.3,0-1.68-.53-3.05-1.6-4.11-1.07-1.06-2.4-1.88-3.99-2.45-1.59-.58-3.79-1.2-6.61-1.88-3.55-.87-6.43-1.75-8.65-2.63-2.22-.89-4.11-2.28-5.67-4.15s-2.35-4.38-2.35-7.5c0-2.89.78-5.41,2.35-7.58s3.76-3.83,6.57-4.98c2.82-1.15,6.07-1.73,9.78-1.73,5.27,0,9.58,1.21,12.95,3.64,3.36,2.43,5.23,5.76,5.59,9.99h-9.85c-.16-1.83-1.09-3.39-2.82-4.69-1.72-1.3-3.99-1.95-6.8-1.95-2.56,0-4.64.6-6.26,1.81-1.62,1.2-2.42,2.93-2.42,5.2,0,1.54.51,2.8,1.52,3.79s2.31,1.77,3.87,2.35c1.57.58,3.7,1.2,6.42,1.88,3.6.91,6.53,1.83,8.8,2.74,2.27.92,4.2,2.32,5.79,4.22,1.59,1.9,2.39,4.44,2.39,7.61,0,2.55-.74,4.95-2.23,7.22-1.48,2.26-3.65,4.08-6.49,5.45-2.84,1.37-6.19,2.06-10.05,2.06-3.65,0-6.94-.59-9.85-1.77Z"/>
    <path class="cls-8" d="M697.48,594.08h25.27v7.14h-35.83v-6.42l25.19-36.59h-25.19v-7.14h35.83v6.42l-25.27,36.59Z"/>
    <path class="cls-4" d="M745.35,594.58h18.38v6.64h-27.3v-50.15h8.92v43.52Z"/>
    <polygon class="cls-7" points="614.15 572.33 609.56 584.26 591.8 584.26 591.71 584.26 604.52 550.99 595.55 550.99 576.08 601.22 585.38 601.22 589.29 590.97 612.06 590.97 615.97 601.22 625.36 601.22 614.15 572.33"/>
    <path class="cls-6" d="M820.71,558.77l-3.66,9.5c.95,2.32,1.44,4.9,1.44,7.76,0,3.7-.8,6.96-2.39,9.78-1.59,2.82-3.79,4.98-6.61,6.49-2.82,1.52-6.02,2.28-9.62,2.28s-6.81-.76-9.62-2.28c-2.82-1.51-5.02-3.68-6.61-6.49-1.59-2.82-2.38-6.07-2.38-9.78s.79-6.95,2.38-9.74c1.59-2.79,3.79-4.93,6.61-6.42,1.8-.95,3.77-1.56,5.88-1.91l2.9-7.52c-4.73.12-9.11,1.19-13.12,3.26-4.25,2.19-7.61,5.23-10.09,9.13-2.48,3.9-3.71,8.3-3.71,13.21s1.24,9.32,3.71,13.24c2.48,3.92,5.84,6.98,10.09,9.17,4.25,2.19,8.91,3.29,13.97,3.29s9.79-1.09,14.04-3.29c4.25-2.19,7.6-5.24,10.05-9.17,2.45-3.92,3.67-8.34,3.67-13.24s-1.23-9.31-3.67-13.21c-.94-1.49-2.05-2.82-3.25-4.06Z"/>
    <path class="cls-24" d="M497.07,559.06l-3.74,9.72c.82,2.19,1.25,4.6,1.25,7.26,0,3.7-.8,6.96-2.39,9.78-1.59,2.82-3.79,4.98-6.61,6.49-2.82,1.52-6.02,2.28-9.62,2.28s-6.81-.76-9.62-2.28c-2.82-1.51-5.02-3.68-6.61-6.49-1.59-2.82-2.38-6.07-2.38-9.78s.79-6.95,2.38-9.74c1.59-2.79,3.79-4.93,6.61-6.42,1.91-1.01,4.02-1.65,6.3-1.98l2.87-7.46c-4.88.06-9.39,1.15-13.51,3.27-4.25,2.19-7.61,5.23-10.09,9.13-2.48,3.9-3.71,8.3-3.71,13.21s1.24,9.32,3.71,13.24c2.48,3.92,5.84,6.98,10.09,9.17,4.25,2.19,8.9,3.29,13.96,3.29s9.79-1.09,14.04-3.29c4.25-2.19,7.6-5.24,10.05-9.17,2.45-3.92,3.67-8.34,3.67-13.24s-1.23-9.31-3.67-13.21c-.87-1.38-1.89-2.61-2.98-3.77Z"/>
  </g>
</svg>