<svg width="509" height="152" viewBox="0 0 509 152" fill="none" xmlns="http://www.w3.org/2000/svg">
<rect width="509" height="152" rx="22" fill="white"/>
<path d="M384.671 106.037C384.138 105.672 383.688 105.198 383.351 104.646C383.014 104.095 382.798 103.478 382.716 102.837H384.786C385.019 103.608 385.526 104.266 386.212 104.688C386.991 105.172 387.895 105.415 388.812 105.388C389.33 105.408 389.847 105.322 390.331 105.136C390.816 104.951 391.257 104.668 391.629 104.307C392.008 103.902 392.301 103.424 392.489 102.902C392.677 102.38 392.756 101.825 392.722 101.271V98.626C392.28 99.3898 391.646 100.024 390.882 100.466C390.018 100.97 389.03 101.224 388.03 101.201C386.957 101.214 385.902 100.927 384.983 100.373C384.064 99.814 383.319 99.0095 382.832 98.05C382.298 96.9974 382.03 95.8301 382.051 94.65C382.025 93.472 382.293 92.3061 382.832 91.2581C383.323 90.3166 384.068 89.5314 384.983 88.9919C385.907 88.454 386.961 88.1776 388.03 88.192C389.031 88.1698 390.02 88.416 390.894 88.905C391.657 89.3239 392.289 89.9449 392.722 90.7V88.4H394.838V101.28C394.858 102.349 394.605 103.406 394.103 104.351C393.618 105.239 392.887 105.968 391.998 106.451C391.019 106.973 389.922 107.235 388.813 107.21C387.343 107.265 385.894 106.854 384.671 106.037ZM386.304 90.558C385.648 90.9381 385.114 91.4963 384.763 92.168C384.365 92.9343 384.167 93.7888 384.188 94.652C384.167 95.5261 384.364 96.3918 384.763 97.17C385.113 97.8481 385.647 98.4139 386.304 98.803C386.953 99.1797 387.692 99.3742 388.443 99.366C389.197 99.3733 389.939 99.1789 390.593 98.803C391.255 98.4173 391.794 97.8509 392.146 97.17C392.543 96.3995 392.741 95.5417 392.721 94.675C392.742 93.8118 392.544 92.9573 392.146 92.191C391.792 91.5147 391.253 90.9523 390.593 90.569C389.939 90.193 389.197 89.9987 388.443 90.006C387.692 89.9968 386.953 90.1873 386.3 90.558H386.304ZM416.032 100.402C415.09 99.8659 414.32 99.0718 413.813 98.113C413.26 97.0531 412.983 95.8706 413.008 94.675C412.982 93.4857 413.25 92.3082 413.79 91.248C414.286 90.2937 415.051 89.5061 415.99 88.983C416.987 88.4403 418.109 88.1665 419.244 88.189C420.352 88.1673 421.447 88.4369 422.418 88.9709C423.317 89.4709 424.055 90.2167 424.545 91.121C425.053 92.0717 425.31 93.1362 425.293 94.214C425.292 94.6369 425.269 95.0594 425.224 95.48H415.146C415.153 96.0258 415.27 96.5646 415.489 97.0645C415.708 97.5643 416.025 98.0151 416.422 98.39C417.193 99.0866 418.201 99.4612 419.24 99.437C420.042 99.4659 420.834 99.2446 421.505 98.804C422.102 98.3935 422.55 97.8006 422.781 97.114H425.035C424.715 98.2999 424.001 99.3417 423.011 100.069C421.914 100.855 420.588 101.256 419.239 101.208C418.118 101.226 417.011 100.947 416.032 100.4V100.402ZM416.446 90.972C415.674 91.7073 415.217 92.7128 415.17 93.778H423.128C423.148 93.056 422.965 92.3429 422.599 91.72C422.256 91.1538 421.757 90.6987 421.162 90.4091C420.535 90.1056 419.846 89.9523 419.15 89.9611C418.152 89.9378 417.184 90.2999 416.446 90.972ZM366.34 100.713C365.623 100.422 364.996 99.9455 364.523 99.333C364.079 98.7435 363.823 98.0341 363.787 97.297H365.95C365.977 97.6027 366.071 97.8987 366.224 98.1648C366.377 98.4308 366.586 98.6605 366.836 98.838C367.445 99.2618 368.176 99.4727 368.917 99.438C369.587 99.4754 370.25 99.2894 370.803 98.9091C371.017 98.7591 371.192 98.5594 371.312 98.327C371.433 98.0947 371.495 97.8365 371.493 97.575C371.502 97.3206 371.438 97.0689 371.307 96.8505C371.177 96.632 370.986 96.4561 370.757 96.344C370.032 95.9915 369.267 95.7254 368.48 95.551C367.7 95.3567 366.935 95.1067 366.191 94.803C365.603 94.552 365.083 94.1659 364.673 93.676C364.232 93.1182 364.007 92.4195 364.041 91.709C364.039 91.0725 364.24 90.452 364.615 89.938C365.034 89.3732 365.599 88.9323 366.248 88.662C367.011 88.3361 367.834 88.1752 368.663 88.1899C369.879 88.1323 371.077 88.5067 372.044 89.2469C372.471 89.6009 372.816 90.0438 373.054 90.5447C373.293 91.0455 373.419 91.5923 373.424 92.147H371.332C371.32 91.8412 371.242 91.5415 371.106 91.2677C370.969 90.9939 370.775 90.7524 370.538 90.559C369.982 90.1356 369.293 89.9231 368.595 89.959C367.961 89.9256 367.332 90.0944 366.8 90.441C366.592 90.5793 366.422 90.7675 366.305 90.9885C366.189 91.2095 366.13 91.4562 366.133 91.7061C366.127 91.8948 366.159 92.0829 366.227 92.2588C366.296 92.4347 366.4 92.5947 366.533 92.729C366.823 93.0109 367.167 93.2302 367.545 93.373C368.099 93.5819 368.663 93.7621 369.235 93.913C369.986 94.1071 370.723 94.3489 371.443 94.637C372.008 94.8723 372.509 95.2392 372.904 95.707C373.329 96.2335 373.553 96.8936 373.537 97.5699C373.544 98.2357 373.343 98.8872 372.962 99.433C372.552 100.008 371.99 100.458 371.34 100.733C370.583 101.06 369.765 101.221 368.94 101.205C368.049 101.22 367.164 101.053 366.34 100.713ZM352.115 100.402C351.172 99.8659 350.403 99.0718 349.896 98.113C349.342 97.0531 349.066 95.8706 349.091 94.675C349.065 93.4857 349.333 92.3082 349.873 91.248C350.369 90.2939 351.134 89.5064 352.073 88.983C353.07 88.4403 354.192 88.1665 355.327 88.189C356.435 88.1673 357.53 88.4369 358.501 88.9709C359.4 89.4711 360.138 90.2168 360.629 91.121C361.136 92.0719 361.393 93.1363 361.376 94.214C361.375 94.6369 361.352 95.0595 361.307 95.48H351.233C351.24 96.0258 351.357 96.5646 351.576 97.0645C351.795 97.5643 352.112 98.0151 352.509 98.39C353.28 99.0866 354.288 99.4612 355.327 99.437C356.129 99.4659 356.921 99.2446 357.592 98.804C358.189 98.3934 358.637 97.8005 358.869 97.114H361.123C360.803 98.3 360.089 99.342 359.099 100.069C358.002 100.855 356.676 101.256 355.327 101.208C354.204 101.226 353.096 100.948 352.115 100.4V100.402ZM352.529 90.972C351.757 91.7073 351.3 92.7128 351.253 93.778H359.211C359.231 93.056 359.048 92.3429 358.682 91.72C358.339 91.1538 357.84 90.6987 357.245 90.4091C356.618 90.1055 355.929 89.9522 355.233 89.9611C354.235 89.9378 353.267 90.2999 352.529 90.972ZM336.129 100.379C335.21 99.82 334.465 99.0155 333.978 98.056C333.444 97.0034 333.176 95.8361 333.197 94.656C333.171 93.478 333.439 92.3121 333.978 91.264C334.469 90.3225 335.214 89.5375 336.129 88.998C337.061 88.4581 338.123 88.1815 339.2 88.198C340.155 88.1915 341.096 88.425 341.937 88.877C342.731 89.2838 343.399 89.9001 343.868 90.6591V83.989H345.984V101H343.868V98.631C343.434 99.4033 342.798 100.043 342.028 100.482C341.161 100.979 340.175 101.23 339.176 101.206C338.104 101.219 337.049 100.933 336.13 100.379H336.129ZM337.451 90.558C336.795 90.9381 336.261 91.4963 335.91 92.168C335.512 92.9343 335.314 93.7888 335.335 94.652C335.314 95.5261 335.511 96.3918 335.91 97.17C336.26 97.8481 336.794 98.4139 337.451 98.803C338.1 99.1797 338.839 99.3742 339.59 99.366C340.344 99.3733 341.086 99.1789 341.74 98.803C342.402 98.4173 342.941 97.8509 343.293 97.17C343.69 96.3995 343.888 95.5417 343.868 94.675C343.889 93.8118 343.691 92.9573 343.293 92.191C342.939 91.5147 342.4 90.9523 341.74 90.569C341.086 90.193 340.344 89.9987 339.59 90.006C338.841 89.9977 338.102 90.1882 337.451 90.558ZM322.03 100.494C321.26 100.068 320.62 99.4395 320.179 98.677V101H318.087V83.98H320.179V90.743C320.63 89.9705 321.282 89.3346 322.065 88.903C322.928 88.4185 323.905 88.1724 324.894 88.1899C325.968 88.1725 327.026 88.4492 327.953 88.99C328.862 89.5324 329.603 90.3169 330.092 91.256C330.631 92.304 330.899 93.4699 330.873 94.6479C330.894 95.828 330.626 96.9953 330.092 98.048C329.605 99.0074 328.86 99.812 327.941 100.371C327.022 100.925 325.967 101.212 324.894 101.199C323.894 101.223 322.905 100.98 322.03 100.494ZM322.33 90.5699C321.666 90.9573 321.124 91.5231 320.766 92.203C320.363 92.9639 320.161 93.8152 320.179 94.676C320.159 95.5441 320.361 96.4029 320.766 97.171C321.125 97.8508 321.666 98.4165 322.33 98.804C322.976 99.1778 323.711 99.3722 324.457 99.3669C325.211 99.3743 325.954 99.1799 326.608 98.804C327.27 98.4178 327.809 97.8515 328.161 97.171C328.56 96.3928 328.757 95.5271 328.736 94.653C328.757 93.7897 328.559 92.9353 328.161 92.1689C327.808 91.4948 327.269 90.9361 326.608 90.559C325.952 90.1898 325.21 89.9994 324.457 90.007C323.711 90.0017 322.976 90.1961 322.33 90.5699ZM305.723 100.402C304.781 99.8656 304.011 99.0716 303.504 98.113C302.952 97.0527 302.677 95.8701 302.704 94.675C302.678 93.4857 302.946 92.3082 303.486 91.248C303.982 90.2938 304.747 89.5062 305.686 88.983C306.683 88.4403 307.805 88.1665 308.94 88.189C310.048 88.1671 311.143 88.4368 312.114 88.9709C313.013 89.4711 313.751 90.2168 314.242 91.121C314.75 92.0717 315.008 93.1362 314.99 94.214C314.989 94.6369 314.966 95.0594 314.921 95.48H304.847C304.854 96.0258 304.971 96.5646 305.19 97.0645C305.409 97.5643 305.726 98.0151 306.123 98.39C306.894 99.0865 307.902 99.4612 308.94 99.437C309.743 99.466 310.535 99.2448 311.206 98.804C311.803 98.3932 312.25 97.8004 312.482 97.114H314.736C314.416 98.2999 313.703 99.3419 312.713 100.069C311.616 100.855 310.289 101.256 308.94 101.208C307.815 101.227 306.705 100.948 305.723 100.4V100.402ZM306.137 90.972C305.365 91.7073 304.908 92.7128 304.861 93.778H312.819C312.839 93.0561 312.656 92.3432 312.291 91.72C311.948 91.1537 311.449 90.6986 310.853 90.4091C310.226 90.1055 309.537 89.9522 308.841 89.9611C307.843 89.9381 306.875 90.3002 306.137 90.972ZM267.302 100.713C266.585 100.422 265.958 99.9455 265.485 99.333C265.041 98.7437 264.784 98.0342 264.749 97.297H266.911C266.939 97.6026 267.032 97.8986 267.185 98.1646C267.338 98.4305 267.547 98.6603 267.797 98.838C268.406 99.2617 269.138 99.4726 269.879 99.438C270.549 99.4754 271.212 99.2894 271.765 98.9091C271.979 98.759 272.154 98.5593 272.274 98.3269C272.394 98.0945 272.456 97.8365 272.454 97.575C272.464 97.3207 272.399 97.0691 272.269 96.8506C272.138 96.6321 271.947 96.4562 271.719 96.344C270.994 95.9916 270.229 95.7255 269.442 95.551C268.662 95.3569 267.897 95.1068 267.153 94.803C266.565 94.552 266.045 94.1659 265.635 93.676C265.193 93.1184 264.968 92.4196 265.002 91.709C265 91.0724 265.201 90.4517 265.577 89.938C265.996 89.3732 266.561 88.9323 267.21 88.662C267.973 88.336 268.796 88.1751 269.625 88.1899C270.841 88.1324 272.039 88.5068 273.006 89.2469C273.433 89.6009 273.778 90.0438 274.016 90.5447C274.255 91.0455 274.381 91.5923 274.386 92.147H272.293C272.281 91.8413 272.204 91.5417 272.067 91.2679C271.93 90.9942 271.737 90.7526 271.5 90.559C270.943 90.1356 270.255 89.923 269.556 89.959C268.922 89.9258 268.294 90.0946 267.762 90.441C267.554 90.5793 267.384 90.7675 267.267 90.9885C267.151 91.2095 267.092 91.4562 267.095 91.7061C267.089 91.8948 267.121 92.0829 267.189 92.2588C267.258 92.4347 267.362 92.5947 267.495 92.729C267.785 93.0109 268.129 93.2302 268.507 93.373C269.061 93.5819 269.625 93.7621 270.197 93.913C270.948 94.1071 271.685 94.3489 272.405 94.637C272.97 94.8723 273.471 95.2392 273.866 95.707C274.291 96.2337 274.515 96.8937 274.499 97.5699C274.506 98.2357 274.305 98.8872 273.924 99.433C273.513 100.007 272.952 100.457 272.302 100.733C271.545 101.06 270.727 101.221 269.902 101.205C269.01 101.221 268.125 101.053 267.3 100.713H267.302ZM253.077 100.402C252.134 99.8659 251.365 99.0718 250.858 98.113C250.304 97.0534 250.026 95.8707 250.052 94.675C250.026 93.4857 250.294 92.3082 250.834 91.248C251.33 90.2937 252.095 89.5061 253.034 88.983C254.031 88.4401 255.153 88.1664 256.288 88.189C257.396 88.1672 258.49 88.4368 259.461 88.9709C260.36 89.4706 261.099 90.2165 261.589 91.121C262.097 92.0717 262.354 93.1362 262.337 94.214C262.336 94.6369 262.313 95.0594 262.268 95.48H252.194C252.201 96.0258 252.318 96.5646 252.537 97.0645C252.756 97.5643 253.073 98.0151 253.47 98.39C254.241 99.0866 255.249 99.4612 256.288 99.437C257.09 99.4659 257.882 99.2446 258.553 98.804C259.15 98.3935 259.598 97.8006 259.829 97.114H262.084C261.764 98.2999 261.05 99.3417 260.06 100.069C258.963 100.855 257.637 101.256 256.288 101.208C255.165 101.226 254.058 100.948 253.077 100.4V100.402ZM253.491 90.972C252.719 91.7072 252.261 92.7127 252.214 93.778H260.173C260.193 93.056 260.01 92.3429 259.644 91.72C259.301 91.1538 258.802 90.6987 258.207 90.4091C257.58 90.1056 256.891 89.9523 256.195 89.9611C255.197 89.9378 254.229 90.2999 253.491 90.972ZM233.86 100.713C233.143 100.422 232.516 99.9455 232.043 99.333C231.599 98.7435 231.343 98.0341 231.307 97.297H233.47C233.497 97.6027 233.591 97.8987 233.744 98.1648C233.897 98.4308 234.106 98.6605 234.356 98.838C234.965 99.2618 235.696 99.4727 236.437 99.438C237.107 99.4754 237.77 99.2894 238.323 98.9091C238.537 98.7591 238.712 98.5594 238.832 98.327C238.953 98.0947 239.015 97.8365 239.013 97.575C239.022 97.3206 238.958 97.0689 238.827 96.8505C238.697 96.632 238.506 96.4561 238.277 96.344C237.552 95.9915 236.787 95.7254 236 95.551C235.22 95.3567 234.455 95.1067 233.711 94.803C233.123 94.552 232.603 94.1659 232.193 93.676C231.752 93.1182 231.527 92.4195 231.561 91.709C231.559 91.0725 231.76 90.452 232.135 89.938C232.555 89.373 233.119 88.9321 233.769 88.662C234.532 88.3361 235.355 88.1752 236.184 88.1899C237.4 88.1323 238.598 88.5067 239.565 89.2469C239.992 89.6009 240.337 90.0438 240.575 90.5447C240.814 91.0455 240.94 91.5923 240.945 92.147H238.853C238.841 91.8412 238.763 91.5415 238.627 91.2677C238.49 90.9939 238.296 90.7524 238.059 90.559C237.503 90.1356 236.814 89.9231 236.116 89.959C235.482 89.9256 234.853 90.0944 234.321 90.441C234.113 90.5793 233.943 90.7675 233.826 90.9885C233.71 91.2095 233.651 91.4562 233.654 91.7061C233.648 91.8948 233.68 92.0829 233.748 92.2588C233.817 92.4347 233.921 92.5947 234.054 92.729C234.344 93.0109 234.688 93.2302 235.066 93.373C235.62 93.5819 236.184 93.7621 236.756 93.913C237.507 94.1071 238.244 94.3489 238.964 94.637C239.529 94.8723 240.03 95.2392 240.425 95.707C240.85 96.2335 241.074 96.8936 241.058 97.5699C241.065 98.2357 240.864 98.8872 240.483 99.433C240.073 100.008 239.511 100.458 238.861 100.733C238.104 101.06 237.286 101.221 236.461 101.205C235.57 101.22 234.684 101.053 233.86 100.713ZM177.073 100.379C176.159 99.8173 175.419 99.0132 174.935 98.056C174.401 97.0034 174.133 95.8362 174.153 94.656C174.127 93.4779 174.396 92.312 174.935 91.264C175.426 90.3226 176.171 89.5376 177.085 88.998C178.009 88.4601 179.063 88.1836 180.132 88.198C181.137 88.1731 182.131 88.4194 183.008 88.911C183.766 89.3322 184.395 89.9531 184.825 90.7061V88.406H186.941V101H184.825V98.655C184.383 99.4194 183.743 100.051 182.973 100.483C182.102 100.979 181.112 101.229 180.11 101.207C179.04 101.221 177.988 100.934 177.073 100.379ZM178.408 90.558C177.752 90.9377 177.217 91.496 176.866 92.168C176.469 92.9346 176.272 93.7889 176.292 94.652C176.271 95.526 176.468 96.3916 176.866 97.17C177.217 97.8483 177.751 98.4142 178.408 98.803C179.057 99.1797 179.796 99.3742 180.546 99.366C181.3 99.3733 182.043 99.1789 182.697 98.803C183.359 98.4168 183.898 97.8505 184.25 97.17C184.647 96.3995 184.845 95.5417 184.825 94.675C184.846 93.8118 184.648 92.9573 184.25 92.191C183.895 91.5151 183.357 90.9528 182.697 90.569C182.043 90.193 181.3 89.9987 180.546 90.006C179.797 89.9972 179.06 90.1877 178.408 90.558ZM219.348 100.575C218.562 100.164 217.917 99.527 217.496 98.746C217.02 97.8314 216.786 96.8099 216.817 95.7791V88.4H218.887V95.507C218.818 96.5475 219.156 97.5742 219.83 98.37C220.164 98.7092 220.567 98.9738 221.011 99.1461C221.455 99.3185 221.93 99.3948 222.406 99.37C222.895 99.3957 223.384 99.3167 223.84 99.1382C224.297 98.9597 224.709 98.6858 225.051 98.335C225.748 97.492 226.095 96.4133 226.018 95.322V88.4H228.11V101H226.018V99.137C225.614 99.7859 225.036 100.308 224.35 100.644C223.618 101.009 222.81 101.195 221.992 101.185C221.074 101.2 220.166 100.99 219.347 100.575H219.348ZM150.969 100.092C149.752 99.4048 148.746 98.3986 148.059 97.182C147.336 95.899 146.967 94.4467 146.99 92.974C146.968 91.4973 147.336 90.0411 148.059 88.7531C148.744 87.5317 149.75 86.5215 150.969 85.832C152.21 85.1301 153.614 84.7689 155.04 84.785C156.638 84.7553 158.209 85.1947 159.56 86.049C160.875 86.8968 161.879 88.1476 162.424 89.614H159.917C159.503 88.7139 158.831 87.9574 157.985 87.441C157.095 86.9152 156.075 86.6484 155.041 86.671C153.983 86.6556 152.939 86.9213 152.017 87.441C151.115 87.9598 150.381 88.7264 149.901 89.65C149.371 90.6764 149.106 91.819 149.13 92.974C149.105 94.1252 149.37 95.2642 149.901 96.286C150.383 97.2057 151.117 97.9689 152.017 98.486C152.939 99.0061 153.983 99.2719 155.041 99.256C156.462 99.3097 157.849 98.8075 158.906 97.856C159.949 96.8563 160.58 95.5032 160.676 94.062H154.282V92.3621H162.907V93.9709C162.794 95.2614 162.368 96.5049 161.665 97.593C160.971 98.6799 160.014 99.5741 158.882 100.193C157.705 100.836 156.382 101.165 155.041 101.148C153.614 101.161 152.209 100.797 150.968 100.092H150.969ZM428.395 101V88.4H430.488V90.447C430.838 89.7459 431.385 89.1626 432.063 88.769C432.828 88.3488 433.691 88.1414 434.563 88.1689V90.332H434.011C431.665 90.332 430.492 91.6047 430.492 94.15V101H428.395ZM407.948 101V93.87C408.02 92.8221 407.682 91.7873 407.005 90.984C406.671 90.6446 406.268 90.38 405.824 90.2076C405.38 90.0353 404.905 89.9591 404.429 89.984C403.942 89.9608 403.456 90.041 403.002 90.2194C402.548 90.3978 402.137 90.6703 401.796 91.019C401.092 91.8589 400.742 92.939 400.819 94.032V101H398.726V88.4H400.819V90.194C401.234 89.5495 401.819 89.0321 402.509 88.699C403.243 88.3415 404.051 88.1604 404.867 88.17C405.55 88.1412 406.231 88.2494 406.871 88.4885C407.511 88.7276 408.097 89.0926 408.593 89.562C409.093 90.0978 409.477 90.7304 409.722 91.4207C409.967 92.1109 410.069 92.8441 410.019 93.575V101H407.948ZM376.829 101V88.4H378.922V101H376.829ZM294.972 101L291.936 91L288.9 101H286.737L282.781 88.4H284.919L287.819 98.98L290.947 88.4H293.086L296.145 99L298.996 88.4H301.066L297.133 101H294.972ZM211.781 101L206.836 95.434V101H204.744V83.98H206.836V93.985L211.69 88.396H214.611L208.677 94.675L214.634 100.999L211.781 101ZM198.74 101V88.4H200.832V101H198.74ZM191.219 101V90.1219H189.586V88.4H191.219V87.5C191.169 86.9363 191.241 86.3684 191.43 85.8348C191.618 85.3013 191.919 84.8143 192.312 84.407C193.324 83.6678 194.57 83.3208 195.819 83.4301V85.178C195.126 85.1081 194.433 85.3013 193.876 85.719C193.667 85.9628 193.509 86.2464 193.413 86.5526C193.316 86.8588 193.282 87.1813 193.313 87.501V88.401H195.958V90.126H193.313V101H191.219ZM166.011 101V88.4H168.104V90.447C168.454 89.7461 169.002 89.1628 169.679 88.769C170.444 88.3488 171.307 88.1414 172.179 88.1689V90.332H171.627C169.281 90.332 168.108 91.6047 168.108 94.15V101H166.011ZM253.549 85.889L258.449 83.014V84.8311L253.549 87.453V85.889ZM376.898 85.936C376.764 85.8046 376.658 85.647 376.586 85.4729C376.515 85.2989 376.48 85.112 376.484 84.924C376.48 84.7359 376.515 84.5491 376.586 84.375C376.657 84.2009 376.763 84.0434 376.898 83.912C377.03 83.7775 377.187 83.6714 377.361 83.6002C377.535 83.529 377.722 83.4943 377.91 83.498C378.093 83.4952 378.274 83.5305 378.442 83.6018C378.611 83.6731 378.762 83.7788 378.887 83.912C379.018 84.0454 379.121 84.2038 379.189 84.3776C379.258 84.5514 379.291 84.7371 379.287 84.924C379.291 85.1108 379.258 85.2967 379.189 85.4705C379.121 85.6443 379.018 85.8026 378.887 85.936C378.762 86.0691 378.61 86.1746 378.442 86.2458C378.274 86.3171 378.093 86.3526 377.91 86.35C377.722 86.3531 377.536 86.3179 377.362 86.2466C377.189 86.1752 377.031 86.0693 376.9 85.9351L376.898 85.936ZM198.809 85.936C198.675 85.8045 198.569 85.6468 198.498 85.4728C198.426 85.2988 198.391 85.1119 198.395 84.924C198.391 84.7359 198.426 84.5492 198.497 84.3751C198.569 84.2011 198.675 84.0435 198.809 83.912C198.941 83.7774 199.098 83.6713 199.273 83.6001C199.447 83.5289 199.634 83.4942 199.822 83.498C200.005 83.4952 200.186 83.5304 200.354 83.6017C200.523 83.673 200.674 83.7787 200.799 83.912C200.93 84.0454 201.033 84.2038 201.101 84.3776C201.17 84.5514 201.203 84.7371 201.199 84.924C201.203 85.1108 201.17 85.2967 201.101 85.4705C201.033 85.6443 200.93 85.8026 200.799 85.936C200.674 86.0692 200.522 86.1747 200.354 86.246C200.186 86.3173 200.005 86.3527 199.822 86.35C199.634 86.3536 199.447 86.3187 199.272 86.2473C199.098 86.1759 198.94 86.0697 198.808 85.9351L198.809 85.936ZM433.489 71.099C432.062 70.3067 430.894 69.1205 430.123 67.682C429.295 66.1118 428.88 64.3569 428.916 62.582C428.877 60.7978 429.286 59.0322 430.106 57.447C430.862 56.0131 432.02 54.8313 433.438 54.047C434.952 53.2328 436.65 52.823 438.368 52.8571C440.044 52.829 441.699 53.2266 443.179 54.0129C444.575 54.7616 445.722 55.9016 446.479 57.293C447.281 58.792 447.685 60.472 447.652 62.172C447.657 62.7867 447.612 63.4008 447.516 64.0081H433.746C433.79 65.2193 434.302 66.3663 435.174 67.208C436.016 67.9805 437.126 68.3951 438.268 68.364C439.054 68.4111 439.835 68.2185 440.509 67.8118C441.183 67.405 441.718 66.8032 442.042 66.0861H447.177C446.649 67.877 445.55 69.4467 444.049 70.557C442.404 71.7569 440.406 72.3728 438.371 72.307C436.666 72.3354 434.983 71.9194 433.487 71.1L433.489 71.099ZM435.257 57.839C434.419 58.6178 433.894 59.6749 433.778 60.813H442.72C442.73 60.2554 442.616 59.7026 442.386 59.1942C442.157 58.6859 441.818 58.2347 441.393 57.873C440.511 57.1289 439.385 56.7355 438.231 56.7679C437.139 56.7357 436.076 57.1185 435.255 57.839H435.257ZM314.251 71.099C312.824 70.3067 311.656 69.1205 310.885 67.682C310.057 66.1118 309.642 64.3569 309.678 62.582C309.639 60.7978 310.048 59.0322 310.868 57.447C311.624 56.0129 312.782 54.831 314.201 54.047C315.714 53.2327 317.412 52.8229 319.13 52.8571C320.806 52.829 322.461 53.2266 323.941 54.0129C325.337 54.7616 326.484 55.9016 327.241 57.293C328.044 58.7919 328.448 60.472 328.415 62.172C328.42 62.7867 328.374 63.4008 328.279 64.0081H314.5C314.543 65.2193 315.055 66.3664 315.927 67.208C316.769 67.9805 317.879 68.3951 319.021 68.364C319.807 68.4111 320.588 68.2185 321.262 67.8118C321.936 67.405 322.471 66.8032 322.795 66.0861H327.929C327.401 67.877 326.302 69.4467 324.801 70.557C323.156 71.7572 321.158 72.3731 319.123 72.307C317.421 72.3334 315.742 71.9175 314.249 71.1L314.251 71.099ZM316.019 57.839C315.181 58.6177 314.655 59.6748 314.539 60.813H323.481C323.491 60.2554 323.377 59.7025 323.148 59.1941C322.919 58.6857 322.58 58.2346 322.155 57.873C321.272 57.1287 320.146 56.7352 318.992 56.7679C317.901 56.736 316.838 57.1187 316.017 57.839H316.019ZM256.619 71.099C255.192 70.3067 254.024 69.1205 253.253 67.682C252.425 66.1118 252.01 64.3569 252.046 62.582C252.007 60.7978 252.416 59.0322 253.236 57.447C253.991 56.0129 255.15 54.831 256.568 54.047C258.082 53.2328 259.78 52.823 261.498 52.8571C263.174 52.829 264.829 53.2266 266.309 54.0129C267.705 54.7616 268.852 55.9016 269.609 57.293C270.411 58.792 270.815 60.472 270.782 62.172C270.787 62.7867 270.742 63.4008 270.646 64.0081H256.876C256.92 65.2193 257.432 66.3663 258.304 67.208C259.146 67.9805 260.256 68.3951 261.398 68.364C262.184 68.4111 262.965 68.2185 263.639 67.8118C264.313 67.405 264.848 66.8032 265.172 66.0861H270.306C269.778 67.8771 268.68 69.4469 267.179 70.557C265.534 71.7569 263.536 72.3728 261.501 72.307C259.797 72.3351 258.114 71.9181 256.619 71.099ZM258.387 57.839C257.549 58.6176 257.023 59.6748 256.908 60.813H265.85C265.86 60.2554 265.746 59.7026 265.516 59.1942C265.287 58.6859 264.948 58.2347 264.523 57.873C263.641 57.1289 262.515 56.7355 261.361 56.7679C260.27 56.7362 259.207 57.1189 258.387 57.839ZM216.924 71.473C215.778 70.9786 214.778 70.2001 214.017 69.2111C213.318 68.2986 212.909 67.1967 212.844 66.049H217.638C217.682 66.4067 217.8 66.7515 217.985 67.0613C218.169 67.3711 218.416 67.6393 218.709 67.849C219.383 68.3416 220.203 68.5934 221.037 68.564C221.785 68.6071 222.528 68.4171 223.163 68.02C223.398 67.8711 223.591 67.6651 223.725 67.4214C223.859 67.1777 223.929 66.904 223.928 66.626C223.93 66.3289 223.841 66.0383 223.674 65.7925C223.507 65.5467 223.27 65.3573 222.993 65.249C222.033 64.8279 221.038 64.4932 220.018 64.249C218.844 63.9805 217.691 63.6282 216.567 63.1949C215.674 62.8336 214.881 62.2622 214.255 61.5291C213.572 60.6728 213.227 59.5956 213.286 58.502C213.28 57.4792 213.594 56.4803 214.186 55.646C214.843 54.7404 215.737 54.0343 216.77 53.606C218.023 53.0817 219.373 52.827 220.731 52.858C222.665 52.7578 224.572 53.355 226.103 54.541C226.768 55.1018 227.308 55.7954 227.688 56.5773C228.069 57.3591 228.282 58.212 228.313 59.0811H223.757C223.736 58.7343 223.641 58.396 223.48 58.0883C223.319 57.7805 223.095 57.5102 222.822 57.295C222.178 56.8255 221.391 56.5918 220.595 56.6331C219.9 56.5906 219.207 56.7563 218.606 57.109C218.384 57.2504 218.203 57.447 218.081 57.6794C217.958 57.9119 217.898 58.1723 217.906 58.4351C217.904 58.743 217.994 59.0446 218.163 59.3018C218.332 59.5589 218.574 59.7602 218.858 59.88C219.806 60.3172 220.797 60.6524 221.815 60.88C222.96 61.1521 224.085 61.5042 225.181 61.934C226.071 62.3005 226.859 62.8781 227.476 63.6169C228.154 64.4706 228.508 65.5364 228.476 66.626C228.49 67.6708 228.175 68.6936 227.576 69.55C226.922 70.4534 226.026 71.1544 224.992 71.573C223.747 72.0838 222.41 72.3326 221.064 72.304C219.64 72.3268 218.229 72.0435 216.924 71.473ZM196.15 71.098C194.75 70.3004 193.606 69.1212 192.85 67.698C192.028 66.1202 191.619 64.3605 191.659 62.582C191.619 60.8033 192.028 59.0431 192.85 57.465C193.606 56.0421 194.75 54.863 196.15 54.0649C197.624 53.2428 199.29 52.8264 200.978 52.858C203.053 52.7766 205.095 53.3931 206.778 54.609C208.347 55.8366 209.435 57.575 209.855 59.522H204.721C204.481 58.7497 203.998 58.0757 203.344 57.6C202.639 57.1162 201.798 56.8709 200.944 56.9C200.327 56.8754 199.713 56.9964 199.152 57.2534C198.591 57.5104 198.098 57.896 197.714 58.379C196.848 59.6016 196.428 61.0841 196.524 62.579C196.432 64.0624 196.852 65.5325 197.714 66.743C198.098 67.2264 198.591 67.6122 199.152 67.8694C199.713 68.1265 200.327 68.2477 200.944 68.223C201.775 68.2944 202.605 68.076 203.293 67.605C203.98 67.1339 204.484 66.4393 204.718 65.639H209.852C209.403 67.5641 208.312 69.2789 206.758 70.501C205.093 71.7417 203.053 72.3768 200.978 72.301C199.291 72.3345 197.625 71.9201 196.15 71.1V71.098ZM174.75 71.098C173.323 70.3058 172.155 69.1195 171.384 67.681C170.556 66.1108 170.141 64.3559 170.177 62.5811C170.138 60.7968 170.547 59.0313 171.367 57.446C172.123 56.0121 173.281 54.8303 174.699 54.046C176.213 53.2318 177.911 52.8219 179.629 52.856C181.305 52.8279 182.96 53.2256 184.44 54.012C185.836 54.7607 186.983 55.9007 187.74 57.292C188.542 58.791 188.946 60.4711 188.913 62.171C188.918 62.7857 188.873 63.3997 188.777 64.007H175C175.044 65.2182 175.556 66.3653 176.428 67.207C177.27 67.9795 178.38 68.3941 179.522 68.363C180.308 68.4101 181.089 68.2176 181.763 67.8108C182.437 67.404 182.972 66.8021 183.296 66.085H188.431C187.903 67.8759 186.804 69.4457 185.303 70.556C183.658 71.7559 181.66 72.3719 179.625 72.306C177.922 72.3337 176.241 71.9181 174.747 71.1L174.75 71.098ZM176.518 57.838C175.68 58.6169 175.155 59.674 175.039 60.812H183.981C183.991 60.2544 183.877 59.7015 183.647 59.1931C183.418 58.6848 183.079 58.2336 182.654 57.8719C181.772 57.1278 180.646 56.7345 179.492 56.767C178.4 56.735 177.336 57.118 176.515 57.839L176.518 57.838ZM464.818 72V61.6C464.902 60.3482 464.5 59.1123 463.696 58.149C463.302 57.741 462.825 57.4222 462.297 57.214C461.769 57.0058 461.203 56.913 460.636 56.942C460.062 56.9122 459.488 57.0044 458.952 57.2124C458.416 57.4204 457.93 57.7397 457.526 58.149C456.712 59.1076 456.304 60.3453 456.387 61.6V72H451.627V53.1639H456.387V55.51C457.033 54.6851 457.866 54.0264 458.818 53.589C459.835 53.1164 460.944 52.8773 462.065 52.889C463.07 52.8475 464.072 53.0148 465.008 53.3806C465.944 53.7464 466.795 54.3026 467.505 55.014C468.227 55.8161 468.782 56.7537 469.138 57.7722C469.494 58.7908 469.644 59.87 469.579 60.947V72H464.818ZM420.176 72V53.1639H424.936V72H420.176ZM404.23 72L397.294 53.1639H402.394L407.154 67.614L411.914 53.1639H416.98L410.01 72H404.23ZM389.338 72V53.1639H394.098V72H389.338ZM371.488 72L362.788 48.2679H367.888L374.416 67.1379L380.91 48.2679H385.975L377.275 72H371.488ZM346.088 72V53.1639H350.848V72H346.088ZM339.152 72C335.141 72 333.135 70.0506 333.135 66.152V57.075H330.89V53.1639H333.135V48.507H337.928V53.1639H342.145V57.075H337.928V66.187C337.905 66.4358 337.934 66.6868 338.013 66.9238C338.092 67.1609 338.219 67.3789 338.387 67.564C338.833 67.8905 339.384 68.0418 339.934 67.989H342.144V72H339.152ZM301.106 72V61.6C301.191 60.3687 300.788 59.1537 299.984 58.217C299.585 57.8183 299.106 57.5077 298.579 57.3057C298.051 57.1036 297.488 57.0144 296.924 57.0439C296.358 57.0156 295.792 57.1052 295.263 57.3071C294.733 57.5091 294.251 57.819 293.848 58.217C293.445 58.6785 293.137 59.2147 292.942 59.7952C292.747 60.3756 292.667 60.9889 292.709 61.6V72H287.949V61.6C288.034 60.3687 287.631 59.1537 286.827 58.217C286.428 57.8183 285.949 57.5077 285.422 57.3057C284.894 57.1036 284.331 57.0144 283.767 57.0439C283.196 57.0135 282.624 57.1022 282.089 57.3041C281.554 57.506 281.066 57.8169 280.657 58.217C280.254 58.6785 279.946 59.2147 279.751 59.7952C279.556 60.3756 279.476 60.9889 279.518 61.6V72H274.758V53.1639H279.518V55.442C280.144 54.6378 280.954 53.9966 281.881 53.573C282.877 53.1124 283.963 52.8801 285.06 52.8929C286.432 52.8685 287.789 53.1901 289.004 53.828C290.142 54.4339 291.076 55.3619 291.69 56.496C292.319 55.3921 293.243 54.4858 294.359 53.879C295.515 53.2245 296.822 52.8844 298.15 52.8929C299.178 52.8481 300.204 53.0135 301.166 53.3789C302.127 53.7443 303.004 54.302 303.743 55.0179C304.479 55.8122 305.047 56.7474 305.413 57.7671C305.778 58.7868 305.933 59.8699 305.868 60.951V72H301.106ZM244.054 72L237.662 63.976V72H232.902V46.84H237.662V61.1541L243.985 53.1639H250.173L241.873 62.616L250.238 72H244.054ZM161.74 72L153.104 61.426V72H148.345V48.2679H153.104V58.911L161.74 48.2679H167.486L157.694 60.032L167.76 72H161.74ZM314.94 48.37L322.76 44.324V48.2L314.94 51.769V48.37ZM420.493 50.12C420.222 49.8656 420.008 49.5569 419.865 49.2142C419.721 48.8715 419.651 48.5024 419.66 48.131C419.651 47.7595 419.721 47.3904 419.865 47.0477C420.008 46.705 420.222 46.3964 420.493 46.142C420.771 45.8767 421.099 45.6694 421.458 45.5321C421.817 45.3948 422.2 45.3302 422.584 45.342C422.968 45.33 423.351 45.3945 423.71 45.5319C424.07 45.6692 424.398 45.8766 424.676 46.142C424.947 46.3964 425.161 46.705 425.305 47.0477C425.448 47.3904 425.518 47.7595 425.509 48.131C425.518 48.5024 425.448 48.8716 425.305 49.2144C425.161 49.5571 424.947 49.8656 424.676 50.12C424.398 50.3854 424.07 50.5928 423.71 50.7301C423.351 50.8674 422.968 50.932 422.584 50.92C422.201 50.9311 421.82 50.8661 421.462 50.729C421.104 50.5919 420.777 50.3852 420.5 50.121L420.493 50.12ZM389.654 50.12C389.383 49.8656 389.169 49.5571 389.025 49.2144C388.882 48.8716 388.812 48.5024 388.821 48.131C388.812 47.7595 388.882 47.3904 389.026 47.0477C389.169 46.705 389.383 46.3964 389.654 46.142C389.932 45.8766 390.261 45.6692 390.62 45.5319C390.979 45.3945 391.362 45.33 391.746 45.342C392.13 45.3302 392.513 45.3948 392.872 45.5321C393.231 45.6694 393.559 45.8767 393.837 46.142C394.108 46.3964 394.322 46.705 394.465 47.0477C394.609 47.3904 394.679 47.7595 394.67 48.131C394.679 48.5024 394.609 48.8715 394.466 49.2142C394.322 49.5569 394.108 49.8656 393.837 50.12C393.559 50.3853 393.231 50.5925 392.872 50.7299C392.513 50.8672 392.13 50.9319 391.746 50.92C391.363 50.9312 390.981 50.8664 390.624 50.7292C390.266 50.5921 389.939 50.3853 389.661 50.121L389.654 50.12ZM346.406 50.12C346.135 49.8656 345.921 49.5569 345.778 49.2142C345.634 48.8715 345.564 48.5024 345.573 48.131C345.564 47.7595 345.634 47.3904 345.778 47.0477C345.921 46.705 346.135 46.3964 346.406 46.142C346.684 45.8767 347.012 45.6694 347.371 45.5321C347.73 45.3948 348.113 45.3302 348.497 45.342C348.881 45.33 349.264 45.3945 349.623 45.5319C349.983 45.6692 350.311 45.8766 350.589 46.142C350.86 46.3964 351.074 46.705 351.218 47.0477C351.361 47.3904 351.431 47.7595 351.422 48.131C351.431 48.5024 351.361 48.8716 351.218 49.2144C351.074 49.5571 350.86 49.8656 350.589 50.12C350.311 50.3854 349.983 50.5928 349.623 50.7301C349.264 50.8674 348.881 50.932 348.497 50.92C348.114 50.9311 347.733 50.8661 347.375 50.729C347.017 50.5919 346.69 50.3852 346.413 50.121L346.406 50.12Z" fill="#1E1E1E"/>
<mask id="mask0_46_94" style="mask-type:luminance" maskUnits="userSpaceOnUse" x="40" y="36" width="84" height="79">
<path d="M124 36H40V115H124V36Z" fill="white"/>
</mask>
<g mask="url(#mask0_46_94)">
<path d="M69.217 115.05H43.195H43.135C42.6936 115.036 42.2599 114.93 41.8623 114.738C41.4646 114.545 41.1119 114.272 40.827 113.934C40.524 113.622 40.2901 113.25 40.1407 112.842C39.9913 112.434 39.9297 111.999 39.96 111.565V39.126C39.9857 38.6997 40.0978 38.2831 40.2894 37.9015C40.4811 37.5198 40.7484 37.1812 41.075 36.906C41.6009 36.3512 42.3231 36.0242 43.087 35.995C43.1728 35.9937 43.2585 36.0004 43.343 36.015H63.217C62.817 36.015 61.525 37.002 60.347 38.598C58.9303 40.4392 58.1347 42.6827 58.075 45.005L58.128 81.079L57.928 103.351C57.9154 106.389 59.0894 109.312 61.2001 111.498C63.3108 113.683 66.1912 114.958 69.228 115.051L69.217 115.05ZM58.132 84.68L58.127 81.08L58.134 80.319L58.132 84.68Z" fill="#1E1E1E"/>
<path d="M109.31 35.5407L92.7665 56.0256L80.9561 46.4648C80.9928 46.0907 81.0109 45.7092 81.0114 45.3289C81.0142 43.6147 80.6323 41.9219 79.8937 40.375C79.1552 38.8282 78.0788 37.4668 76.7441 36.3914C76.3648 36.0848 75.9667 35.8024 75.5519 35.5459L109.308 35.5395L109.31 35.5407Z" fill="#1E1E1E"/>
<path d="M69.817 81.1351L83.317 102.016L99.417 81.1351C100.789 79.1408 101.504 76.7683 101.462 74.3482C101.421 71.9282 100.626 69.5814 99.187 67.6351H119.633C120.337 67.5213 121.059 67.6228 121.705 67.9261C122.35 68.2294 122.889 68.7205 123.251 69.3351C123.621 69.9258 123.791 70.6204 123.733 71.3153C123.676 72.0101 123.396 72.6678 122.934 73.1901L117.034 81.1351L91.934 114.887H89.786L68.926 82.3991L69.817 81.1351Z" fill="#1E1E1E"/>
<path d="M79.6076 51.6623L88.5503 58.9039L85.2071 70.3163C85.2009 70.3113 84.2742 70.1797 78.0077 72.0563C72.1446 73.813 70.0162 75.8867 69.9182 76.1174C69.6274 75.8422 69.3222 75.5826 69.0038 75.3397L68.571 74.9892L75.4708 66.4686C76.1448 66.9513 76.9777 67.1585 77.7992 67.0477C78.6208 66.9369 79.3691 66.5165 79.891 65.8725C80.4326 65.202 80.686 64.3442 80.5958 63.4871C80.5056 62.63 80.0791 61.8438 79.4098 61.3008C78.7396 60.7595 77.882 60.5061 77.0252 60.5963C76.1684 60.6864 75.3824 61.1128 74.8396 61.7819C74.4226 62.2991 74.1734 62.9313 74.1254 63.594C74.0774 64.2567 74.2329 64.9183 74.571 65.4902L67.5414 74.171C66.8032 73.5873 66.1626 73.0866 66.1587 73.0834C67.9014 70.6633 68.9115 67.7932 69.0687 64.815C69.3658 62.282 69.3447 59.7218 69.0057 57.194L79.6098 51.6628L79.6076 51.6623Z" fill="#6208FF"/>
</g>
</svg>
