<?xml version="1.0" encoding="UTF-8"?>
<svg id="Réteg_1" xmlns="http://www.w3.org/2000/svg" version="1.1" viewBox="0 0 327 181.8">
  <!-- Generator: Adobe Illustrator 29.8.4, SVG Export Plug-In . SVG Version: 2.1.1 Build 6)  -->
  <defs>
    <style>
      .st0 {
        fill: #fff;
      }

      .st1 {
        isolation: isolate;
      }

      .st2 {
        fill: #c3a1ff;
      }
    </style>
  </defs>
  <g>
    <g id="Kecskeméti_Vivien" class="st1">
      <g class="st1">
        <path class="st0" d="M19,139.7l-9.1-10.6v10.6h-3.9v-23.6h3.9v10.8l9.2-10.8h4.9l-10.3,11.8,10.4,11.8h-5.1Z"/>
        <path class="st0" d="M45,131.8h-14.3c.1,1.5.7,2.7,1.7,3.6,1,.9,2.2,1.4,3.7,1.4,2.1,0,3.6-.9,4.4-2.6h4.2c-.6,1.7-1.6,3.1-3.1,4.2-1.5,1.1-3.3,1.6-5.5,1.6s-3.4-.4-4.8-1.2c-1.4-.8-2.5-1.9-3.3-3.4s-1.2-3.2-1.2-5.1.4-3.6,1.2-5.1c.8-1.5,1.9-2.6,3.3-3.4,1.4-.8,3-1.2,4.9-1.2s3.3.4,4.7,1.2c1.4.8,2.5,1.9,3.2,3.2.8,1.4,1.2,3,1.2,4.8s0,1.3-.1,1.9ZM41.1,128.6c0-1.4-.5-2.6-1.5-3.4-1-.9-2.2-1.3-3.7-1.3s-2.5.4-3.4,1.3-1.5,2-1.7,3.5h10.4Z"/>
        <path class="st0" d="M49.4,125.2c.8-1.5,1.9-2.6,3.2-3.4,1.4-.8,3-1.2,4.8-1.2s4.1.5,5.6,1.6c1.5,1.1,2.5,2.6,3,4.6h-4.2c-.3-.9-.9-1.7-1.6-2.2-.7-.5-1.7-.8-2.8-.8s-2.9.6-3.8,1.7c-.9,1.1-1.4,2.7-1.4,4.7s.5,3.6,1.4,4.7c.9,1.1,2.2,1.7,3.8,1.7s3.7-1,4.5-3h4.2c-.5,1.9-1.6,3.4-3.1,4.5-1.5,1.1-3.4,1.7-5.6,1.7s-3.4-.4-4.8-1.2c-1.4-.8-2.5-1.9-3.2-3.4-.8-1.5-1.2-3.2-1.2-5.1s.4-3.6,1.2-5.1Z"/>
        <path class="st0" d="M73.2,139.2c-1.2-.5-2.1-1.3-2.8-2.2-.7-.9-1-1.9-1.1-3.1h4c0,.8.4,1.5,1.1,2,.7.5,1.6.8,2.6.8s1.9-.2,2.5-.6c.6-.4.9-1,.9-1.6s-.3-1.2-1-1.6c-.7-.3-1.7-.7-3.2-1.1-1.4-.4-2.6-.8-3.4-1.1-.9-.4-1.6-.9-2.3-1.7s-1-1.7-1-3,.3-1.9.9-2.7c.6-.8,1.4-1.5,2.5-2,1.1-.5,2.4-.7,3.8-.7,2.1,0,3.8.5,5.2,1.6,1.3,1.1,2,2.5,2.1,4.4h-3.9c0-.8-.4-1.5-1-2-.6-.5-1.4-.7-2.5-.7s-1.8.2-2.3.6c-.5.4-.8.9-.8,1.5s.2.9.5,1.3c.4.3.8.6,1.3.8.5.2,1.3.4,2.3.7,1.4.4,2.5.7,3.3,1.1s1.6.9,2.3,1.6c.6.7,1,1.7,1,2.9,0,1.1-.3,2-.9,2.9-.6.8-1.4,1.5-2.5,2-1.1.5-2.3.7-3.8.7s-2.8-.3-4-.8Z"/>
        <path class="st0" d="M96.5,130.3l8.6,9.3h-5.2l-6.9-8.1v8.1h-3.9v-25.2h3.9v14.6l6.8-8.2h5.4l-8.6,9.4Z"/>
        <path class="st0" d="M125.5,131.8h-14.3c.1,1.5.7,2.7,1.7,3.6,1,.9,2.2,1.4,3.7,1.4,2.1,0,3.6-.9,4.4-2.6h4.2c-.6,1.7-1.6,3.1-3.1,4.2s-3.3,1.6-5.5,1.6-3.4-.4-4.8-1.2c-1.4-.8-2.5-1.9-3.3-3.4s-1.2-3.2-1.2-5.1.4-3.6,1.2-5.1c.8-1.5,1.9-2.6,3.3-3.4,1.4-.8,3-1.2,4.9-1.2s3.3.4,4.7,1.2,2.5,1.9,3.2,3.2c.8,1.4,1.2,3,1.2,4.8s0,1.3-.1,1.9ZM121.5,128.6c0-1.4-.5-2.6-1.5-3.4-1-.9-2.2-1.3-3.7-1.3s-2.5.4-3.4,1.3-1.5,2-1.7,3.5h10.4Z"/>
        <path class="st0" d="M156.5,121.6c1.2.6,2.1,1.5,2.8,2.7.7,1.2,1,2.7,1,4.4v11h-3.8v-10.5c0-1.7-.4-3-1.3-3.9s-2-1.3-3.4-1.3-2.6.4-3.5,1.3-1.3,2.2-1.3,3.9v10.5h-3.8v-10.5c0-1.7-.4-3-1.3-3.9-.8-.9-2-1.3-3.4-1.3s-2.6.4-3.5,1.3c-.9.9-1.3,2.2-1.3,3.9v10.5h-3.9v-18.7h3.9v2.1c.6-.8,1.4-1.4,2.4-1.8s2-.6,3.1-.6,2.8.3,4,1c1.2.6,2.1,1.6,2.7,2.8.6-1.1,1.5-2,2.7-2.7,1.2-.7,2.5-1,3.9-1s2.8.3,4,.9Z"/>
        <path class="st0" d="M182.8,131.8h-14.3c.1,1.5.7,2.7,1.7,3.6,1,.9,2.2,1.4,3.7,1.4,2.1,0,3.6-.9,4.4-2.6h4.2c-.6,1.7-1.6,3.1-3.1,4.2s-3.3,1.6-5.5,1.6-3.4-.4-4.8-1.2c-1.4-.8-2.5-1.9-3.3-3.4s-1.2-3.2-1.2-5.1.4-3.6,1.2-5.1c.8-1.5,1.9-2.6,3.3-3.4,1.4-.8,3-1.2,4.9-1.2s3.3.4,4.7,1.2,2.5,1.9,3.2,3.2c.8,1.4,1.2,3,1.2,4.8s0,1.3-.1,1.9ZM178.9,128.6c0-1.4-.5-2.6-1.5-3.4-1-.9-2.2-1.3-3.7-1.3s-2.5.4-3.4,1.3-1.5,2-1.7,3.5h10.4ZM177.2,115.9l-7.5,3.7v-2.9l7.5-4.1v3.3Z"/>
        <path class="st0" d="M191.8,124.1v10.4c0,.7.2,1.2.5,1.5.3.3.9.5,1.7.5h2.4v3.2h-3.1c-1.7,0-3.1-.4-4-1.2-.9-.8-1.4-2.1-1.4-4v-10.4h-2.2v-3.2h2.2v-4.7h3.9v4.7h4.6v3.2h-4.6Z"/>
        <path class="st0" d="M200.6,117.8c-.5-.5-.7-1.1-.7-1.8s.2-1.3.7-1.8,1.1-.7,1.8-.7,1.3.2,1.7.7c.5.5.7,1.1.7,1.8s-.2,1.3-.7,1.8-1.1.7-1.7.7-1.3-.2-1.8-.7ZM204.3,121v18.7h-3.9v-18.7h3.9Z"/>
        <path class="st0" d="M239.6,116.1l-8.9,23.6h-4.5l-8.9-23.6h4.1l7,19.7,7-19.7h4.1Z"/>
        <path class="st0" d="M243.5,117.8c-.5-.5-.7-1.1-.7-1.8s.2-1.3.7-1.8,1.1-.7,1.8-.7,1.3.2,1.7.7c.5.5.7,1.1.7,1.8s-.2,1.3-.7,1.8-1.1.7-1.7.7-1.3-.2-1.8-.7ZM247.2,121v18.7h-3.9v-18.7h3.9Z"/>
        <path class="st0" d="M260.1,136.2l5.3-15.3h4.1l-7.1,18.7h-4.6l-7.1-18.7h4.1l5.3,15.3Z"/>
        <path class="st0" d="M273.1,117.8c-.5-.5-.7-1.1-.7-1.8s.2-1.3.7-1.8,1.1-.7,1.8-.7,1.3.2,1.7.7c.5.5.7,1.1.7,1.8s-.2,1.3-.7,1.8-1.1.7-1.7.7-1.3-.2-1.8-.7ZM276.8,121v18.7h-3.9v-18.7h3.9Z"/>
        <path class="st0" d="M299.4,131.8h-14.3c.1,1.5.7,2.7,1.7,3.6,1,.9,2.2,1.4,3.7,1.4,2.1,0,3.6-.9,4.4-2.6h4.2c-.6,1.7-1.6,3.1-3.1,4.2s-3.3,1.6-5.5,1.6-3.4-.4-4.8-1.2c-1.4-.8-2.5-1.9-3.3-3.4s-1.2-3.2-1.2-5.1.4-3.6,1.2-5.1c.8-1.5,1.9-2.6,3.3-3.4,1.4-.8,3-1.2,4.9-1.2s3.3.4,4.7,1.2,2.5,1.9,3.2,3.2c.8,1.4,1.2,3,1.2,4.8s0,1.3-.1,1.9ZM295.5,128.6c0-1.4-.5-2.6-1.5-3.4-1-.9-2.2-1.3-3.7-1.3s-2.5.4-3.4,1.3-1.5,2-1.7,3.5h10.4Z"/>
        <path class="st0" d="M317.3,121.6c1.2.6,2.1,1.5,2.7,2.7.7,1.2,1,2.7,1,4.4v11h-3.8v-10.5c0-1.7-.4-3-1.3-3.9-.8-.9-2-1.3-3.4-1.3s-2.6.4-3.5,1.3c-.9.9-1.3,2.2-1.3,3.9v10.5h-3.9v-18.7h3.9v2.1c.6-.8,1.4-1.4,2.4-1.8,1-.4,2-.6,3.1-.6s2.8.3,4,.9Z"/>
      </g>
    </g>
    <g id="Grafikus_és_webdesigner" class="st1">
      <g class="st1">
        <path class="st0" d="M32.7,157.3c-.4-.9-1.1-1.7-1.9-2.2s-1.8-.8-2.9-.8-2.1.3-3,.8-1.6,1.2-2.1,2.2c-.5,1-.8,2.1-.8,3.3s.3,2.4.8,3.3,1.2,1.7,2.1,2.2,1.9.8,3,.8,2.9-.5,3.9-1.4c1-.9,1.6-2.2,1.8-3.8h-6.4v-1.7h8.6v1.6c-.1,1.3-.5,2.5-1.2,3.6-.7,1.1-1.6,2-2.8,2.6-1.1.6-2.4,1-3.8,1s-2.8-.3-4.1-1c-1.2-.7-2.2-1.7-2.9-2.9-.7-1.2-1.1-2.6-1.1-4.2s.4-3,1.1-4.2c.7-1.2,1.7-2.2,2.9-2.9,1.2-.7,2.6-1,4.1-1s3.2.4,4.5,1.3c1.3.8,2.3,2,2.9,3.6h-2.5Z"/>
        <path class="st0" d="M42.5,156.5c.7-.4,1.5-.6,2.5-.6v2.2h-.6c-2.3,0-3.5,1.3-3.5,3.8v6.9h-2.1v-12.6h2.1v2c.4-.7.9-1.3,1.6-1.7Z"/>
        <path class="st0" d="M47.8,159c.5-1,1.2-1.7,2.2-2.3s1.9-.8,3-.8,2.1.2,2.9.7c.8.5,1.4,1.1,1.8,1.8v-2.3h2.1v12.6h-2.1v-2.3c-.4.7-1,1.3-1.9,1.8-.8.5-1.8.7-2.9.7s-2.1-.3-3-.8c-.9-.6-1.6-1.3-2.1-2.3-.5-1-.8-2.1-.8-3.4s.3-2.4.8-3.4ZM57.1,159.9c-.4-.7-.9-1.2-1.6-1.6-.7-.4-1.4-.6-2.2-.6s-1.5.2-2.1.6c-.6.4-1.2.9-1.5,1.6-.4.7-.6,1.5-.6,2.5s.2,1.8.6,2.5c.4.7.9,1.3,1.5,1.6s1.4.6,2.1.6,1.5-.2,2.2-.6c.7-.4,1.2-.9,1.6-1.6.4-.7.6-1.5.6-2.5s-.2-1.8-.6-2.5Z"/>
        <path class="st0" d="M68.8,157.8h-2.6v10.9h-2.1v-10.9h-1.6v-1.7h1.6v-.9c0-1.4.4-2.4,1.1-3.1.7-.7,1.9-1,3.5-1v1.7c-.9,0-1.6.2-1.9.5-.4.4-.6,1-.6,1.8v.9h2.6v1.7Z"/>
        <path class="st0" d="M71.6,153.6c-.3-.3-.4-.6-.4-1s.1-.7.4-1c.3-.3.6-.4,1-.4s.7.1,1,.4c.3.3.4.6.4,1s-.1.7-.4,1c-.3.3-.6.4-1,.4s-.7-.1-1-.4ZM73.6,156.1v12.6h-2.1v-12.6h2.1Z"/>
        <path class="st0" d="M84.6,168.7l-4.9-5.6v5.6h-2.1v-17h2.1v10l4.9-5.6h2.9l-5.9,6.3,6,6.3h-2.9Z"/>
        <path class="st0" d="M100.9,156.1v12.6h-2.1v-1.9c-.4.6-1,1.1-1.7,1.5s-1.5.5-2.4.5-1.9-.2-2.6-.6c-.8-.4-1.4-1-1.9-1.8-.5-.8-.7-1.8-.7-3v-7.4h2.1v7.1c0,1.2.3,2.2.9,2.9.6.7,1.5,1,2.6,1s2-.3,2.6-1,1-1.7,1-3v-6.9h2.1Z"/>
        <path class="st0" d="M106.7,168.4c-.8-.3-1.4-.8-1.8-1.4-.4-.6-.7-1.3-.7-2h2.2c0,.6.4,1.1.9,1.5.5.4,1.2.6,2.1.6s1.4-.2,1.9-.5.7-.8.7-1.3-.2-1-.7-1.2-1.2-.5-2.3-.8c-.9-.2-1.7-.5-2.3-.7s-1.1-.6-1.5-1.1-.6-1.2-.6-2,.2-1.2.6-1.8c.4-.5.9-1,1.6-1.3.7-.3,1.5-.5,2.4-.5,1.4,0,2.5.4,3.4,1.1s1.3,1.7,1.4,2.9h-2.1c0-.7-.3-1.2-.8-1.6-.5-.4-1.1-.6-1.9-.6s-1.3.2-1.8.5c-.4.3-.7.7-.7,1.3s.1.8.4,1c.3.3.6.5,1,.6.4.2,1,.3,1.7.5.9.2,1.6.5,2.2.7.6.2,1.1.6,1.5,1.1.4.5.6,1.1.6,1.9,0,.7-.2,1.3-.6,1.9-.4.6-.9,1-1.6,1.3-.7.3-1.5.5-2.4.5s-1.8-.2-2.6-.5Z"/>
        <path class="st0" d="M135.1,163.2h-10.1c0,1.2.5,2.2,1.3,2.9.8.7,1.7,1,2.8,1s1.7-.2,2.3-.6,1-1,1.3-1.7h2.3c-.3,1.2-1,2.2-2,3s-2.3,1.1-3.8,1.1-2.3-.3-3.2-.8c-.9-.5-1.7-1.3-2.2-2.3s-.8-2.1-.8-3.4.3-2.4.8-3.4c.5-1,1.3-1.7,2.2-2.3.9-.5,2-.8,3.3-.8s2.3.3,3.2.8c.9.5,1.6,1.2,2.1,2.2.5.9.7,1.9.7,3.1s0,.8,0,1.3ZM132.5,159.4c-.4-.6-.8-1-1.4-1.3-.6-.3-1.3-.4-2-.4-1.1,0-2,.3-2.7,1-.7.7-1.2,1.6-1.3,2.8h8c0-.8-.2-1.5-.5-2.1ZM131.3,152.5l-4.9,2.6v-1.6l4.9-2.9v1.8Z"/>
        <path class="st0" d="M140.1,168.4c-.8-.3-1.4-.8-1.8-1.4-.4-.6-.7-1.3-.7-2h2.2c0,.6.4,1.1.9,1.5.5.4,1.2.6,2.1.6s1.4-.2,1.9-.5.7-.8.7-1.3-.2-1-.7-1.2c-.5-.3-1.2-.5-2.3-.8-.9-.2-1.7-.5-2.3-.7s-1.1-.6-1.5-1.1c-.4-.5-.6-1.2-.6-2s.2-1.2.6-1.8c.4-.5.9-1,1.6-1.3.7-.3,1.5-.5,2.4-.5,1.4,0,2.5.4,3.4,1.1s1.3,1.7,1.4,2.9h-2.1c0-.7-.3-1.2-.8-1.6-.5-.4-1.1-.6-1.9-.6s-1.3.2-1.8.5c-.4.3-.7.7-.7,1.3s.1.8.4,1,.6.5,1,.6c.4.2,1,.3,1.7.5.9.2,1.6.5,2.2.7.6.2,1.1.6,1.5,1.1.4.5.6,1.1.6,1.9,0,.7-.2,1.3-.6,1.9-.4.6-.9,1-1.6,1.3-.7.3-1.5.5-2.4.5s-1.8-.2-2.6-.5Z"/>
        <path class="st0" d="M173.9,156.1l-3.9,12.6h-2.2l-3-10-3,10h-2.2l-4-12.6h2.1l2.9,10.6,3.1-10.6h2.1l3.1,10.6,2.9-10.6h2.1Z"/>
        <path class="st0" d="M187.7,163.2h-10.1c0,1.2.5,2.2,1.3,2.9.8.7,1.7,1,2.8,1s1.7-.2,2.3-.6,1-1,1.3-1.7h2.3c-.3,1.2-1,2.2-2,3s-2.3,1.1-3.8,1.1-2.3-.3-3.2-.8c-.9-.5-1.7-1.3-2.2-2.3-.5-1-.8-2.1-.8-3.4s.3-2.4.8-3.4c.5-1,1.3-1.7,2.2-2.3.9-.5,2-.8,3.3-.8s2.3.3,3.2.8c.9.5,1.6,1.2,2.1,2.2.5.9.7,1.9.7,3.1s0,.8,0,1.3ZM185.1,159.4c-.4-.6-.8-1-1.4-1.3-.6-.3-1.3-.4-2-.4-1.1,0-2,.3-2.7,1-.7.7-1.2,1.6-1.3,2.8h8c0-.8-.2-1.5-.5-2.1Z"/>
        <path class="st0" d="M194.9,156.6c.8-.5,1.8-.7,2.8-.7s2.2.3,3.1.8c.9.5,1.6,1.3,2.1,2.3.5,1,.8,2.1.8,3.4s-.3,2.4-.8,3.4c-.5,1-1.2,1.8-2.2,2.3-.9.6-1.9.8-3,.8s-2-.2-2.9-.7c-.8-.5-1.4-1.1-1.9-1.8v2.3h-2.1v-17h2.1v6.8c.4-.8,1.1-1.4,1.9-1.8ZM201,159.9c-.4-.7-.9-1.2-1.6-1.6-.7-.4-1.4-.6-2.2-.6s-1.5.2-2.1.6c-.7.4-1.2.9-1.6,1.6-.4.7-.6,1.5-.6,2.5s.2,1.8.6,2.5c.4.7.9,1.3,1.6,1.6.7.4,1.4.6,2.1.6s1.5-.2,2.2-.6c.7-.4,1.2-.9,1.6-1.6.4-.7.6-1.6.6-2.5s-.2-1.8-.6-2.5Z"/>
        <path class="st0" d="M206.8,159c.5-1,1.2-1.7,2.2-2.3.9-.5,1.9-.8,3.1-.8s1.9.2,2.7.7c.8.5,1.5,1,1.9,1.8v-6.7h2.1v17h-2.1v-2.4c-.4.8-1,1.4-1.8,1.9-.8.5-1.8.7-2.9.7s-2.1-.3-3-.8c-.9-.6-1.6-1.3-2.2-2.3-.5-1-.8-2.1-.8-3.4s.3-2.4.8-3.4ZM216.1,159.9c-.4-.7-.9-1.2-1.6-1.6-.7-.4-1.4-.6-2.2-.6s-1.5.2-2.1.6c-.6.4-1.2.9-1.5,1.6-.4.7-.6,1.5-.6,2.5s.2,1.8.6,2.5c.4.7.9,1.3,1.5,1.6.6.4,1.4.6,2.1.6s1.5-.2,2.2-.6,1.2-.9,1.6-1.6c.4-.7.6-1.5.6-2.5s-.2-1.8-.6-2.5Z"/>
        <path class="st0" d="M234.1,163.2h-10.1c0,1.2.5,2.2,1.3,2.9.8.7,1.7,1,2.8,1s1.7-.2,2.3-.6,1-1,1.3-1.7h2.3c-.3,1.2-1,2.2-2,3s-2.3,1.1-3.8,1.1-2.3-.3-3.2-.8c-.9-.5-1.7-1.3-2.2-2.3-.5-1-.8-2.1-.8-3.4s.3-2.4.8-3.4c.5-1,1.3-1.7,2.2-2.3.9-.5,2-.8,3.3-.8s2.3.3,3.2.8c.9.5,1.6,1.2,2.1,2.2.5.9.7,1.9.7,3.1s0,.8,0,1.3ZM231.5,159.4c-.4-.6-.8-1-1.4-1.3-.6-.3-1.3-.4-2-.4-1.1,0-2,.3-2.7,1-.7.7-1.2,1.6-1.3,2.8h8c0-.8-.2-1.5-.5-2.1Z"/>
        <path class="st0" d="M239.2,168.4c-.8-.3-1.4-.8-1.8-1.4-.4-.6-.7-1.3-.7-2h2.2c0,.6.4,1.1.9,1.5.5.4,1.2.6,2.1.6s1.4-.2,1.9-.5.7-.8.7-1.3-.2-1-.7-1.2c-.5-.3-1.2-.5-2.3-.8-.9-.2-1.7-.5-2.3-.7s-1.1-.6-1.5-1.1c-.4-.5-.6-1.2-.6-2s.2-1.2.6-1.8c.4-.5.9-1,1.6-1.3.7-.3,1.5-.5,2.4-.5,1.4,0,2.5.4,3.4,1.1s1.3,1.7,1.4,2.9h-2.1c0-.7-.3-1.2-.8-1.6-.5-.4-1.1-.6-1.9-.6s-1.3.2-1.8.5c-.4.3-.7.7-.7,1.3s.1.8.4,1,.6.5,1,.6c.4.2,1,.3,1.7.5.9.2,1.6.5,2.2.7.6.2,1.1.6,1.5,1.1.4.5.6,1.1.6,1.9,0,.7-.2,1.3-.6,1.9-.4.6-.9,1-1.6,1.3-.7.3-1.5.5-2.4.5s-1.8-.2-2.6-.5Z"/>
        <path class="st0" d="M249.7,153.6c-.3-.3-.4-.6-.4-1s.1-.7.4-1,.6-.4,1-.4.7.1,1,.4c.3.3.4.6.4,1s-.1.7-.4,1c-.3.3-.6.4-1,.4s-.7-.1-1-.4ZM251.7,156.1v12.6h-2.1v-12.6h2.1Z"/>
        <path class="st0" d="M263.7,156.6c.8.5,1.4,1.1,1.8,1.8v-2.3h2.1v12.9c0,1.1-.2,2.2-.7,3.1-.5.9-1.2,1.6-2.1,2.1s-2,.8-3.2.8-3-.4-4.1-1.2c-1.1-.8-1.8-1.8-2-3.2h2.1c.2.8.7,1.4,1.4,1.9.7.5,1.6.7,2.6.7s2.1-.4,2.8-1.1,1.1-1.7,1.1-3v-2.6c-.4.7-1,1.3-1.8,1.8-.8.5-1.8.7-2.9.7s-2.1-.3-3-.8c-.9-.6-1.6-1.3-2.2-2.3-.5-1-.8-2.1-.8-3.4s.3-2.4.8-3.4c.5-1,1.2-1.7,2.2-2.3.9-.5,1.9-.8,3-.8s2,.2,2.9.7ZM265,159.9c-.4-.7-.9-1.2-1.6-1.6-.7-.4-1.4-.6-2.2-.6s-1.5.2-2.1.6c-.6.4-1.2.9-1.5,1.6-.4.7-.6,1.5-.6,2.5s.2,1.8.6,2.5c.4.7.9,1.3,1.5,1.6.6.4,1.4.6,2.1.6s1.5-.2,2.2-.6,1.2-.9,1.6-1.6c.4-.7.6-1.5.6-2.5s-.2-1.8-.6-2.5Z"/>
        <path class="st0" d="M281.4,157.3c1,.9,1.4,2.3,1.4,4v7.4h-2.1v-7.1c0-1.3-.3-2.2-.9-2.9s-1.5-1-2.6-1-2,.3-2.6,1c-.7.7-1,1.7-1,3v7h-2.1v-12.6h2.1v1.8c.4-.6,1-1.1,1.7-1.5s1.5-.5,2.4-.5c1.5,0,2.8.5,3.7,1.4Z"/>
        <path class="st0" d="M298,163.2h-10.1c0,1.2.5,2.2,1.3,2.9.8.7,1.7,1,2.8,1s1.7-.2,2.3-.6,1-1,1.3-1.7h2.3c-.3,1.2-1,2.2-2,3s-2.3,1.1-3.8,1.1-2.3-.3-3.2-.8c-.9-.5-1.7-1.3-2.2-2.3-.5-1-.8-2.1-.8-3.4s.3-2.4.8-3.4c.5-1,1.3-1.7,2.2-2.3.9-.5,2-.8,3.3-.8s2.3.3,3.2.8c.9.5,1.6,1.2,2.1,2.2.5.9.7,1.9.7,3.1s0,.8,0,1.3ZM295.4,159.4c-.4-.6-.8-1-1.4-1.3-.6-.3-1.3-.4-2-.4-1.1,0-2,.3-2.7,1-.7.7-1.2,1.6-1.3,2.8h8c0-.8-.2-1.5-.5-2.1Z"/>
        <path class="st0" d="M304.9,156.5c.7-.4,1.5-.6,2.5-.6v2.2h-.6c-2.3,0-3.5,1.3-3.5,3.8v6.9h-2.1v-12.6h2.1v2c.4-.7.9-1.3,1.6-1.7Z"/>
      </g>
    </g>
  </g>
  <g id="Group_340">
    <path id="Subtraction_12" class="st0" d="M150.9,90.7h-26.1c-.9,0-1.7-.4-2.3-1.1-.6-.6-.9-1.5-.9-2.4V14.8c0-.9.5-1.7,1.1-2.2.5-.6,1.2-.9,2-.9,0,0,.2,0,.3,0h19.9c-.4,0-1.7,1-2.9,2.6-1.4,1.8-2.2,4.1-2.3,6.4v36.1c0,0-.1,22.3-.1,22.3,0,6.3,5,11.5,11.3,11.7h0ZM139.8,60.4h0v-3.6s0-.8,0-.8v4.4Z"/>
    <path id="Subtraction_14" class="st2" d="M191,11.2h0l-16.5,20.5-11.8-9.6c0-.4,0-.8,0-1.1,0-3.5-1.6-6.8-4.3-8.9-.4-.3-.8-.6-1.2-.8h33.8s0,0,0,0Z"/>
    <path id="Path_326" class="st0" d="M151.5,56.8l13.5,20.9,16.1-20.9c2.8-4.1,2.7-9.5-.2-13.5h20.4c1.4-.2,2.9.4,3.6,1.7.8,1.2.6,2.8-.3,3.9l-5.9,7.9-25.1,33.8h-2.1l-20.9-32.5.9-1.3Z"/>
    <g id="Group_336">
      <path id="Subtraction_8" class="st2" d="M161.3,27.4l8.9,7.2-3.3,11.4s-.9-.1-7.2,1.7c-5.9,1.8-8,3.8-8.1,4.1-.3-.3-.6-.5-.9-.8l-.4-.4,6.9-8.5c1.4,1,3.3.7,4.4-.6,1.1-1.4.9-3.4-.5-4.6-1.4-1.1-3.4-.9-4.6.5-.9,1.1-1,2.5-.3,3.7l-7,8.7c-.7-.6-1.4-1.1-1.4-1.1,1.7-2.4,2.8-5.3,2.9-8.3.3-2.5.3-5.1,0-7.6l10.6-5.5h0Z"/>
    </g>
  </g>
</svg>