<svg width="509" height="152" viewBox="0 0 509 152" fill="none" xmlns="http://www.w3.org/2000/svg">
<rect width="509" height="152" rx="22" fill="#282828"/>
<path d="M71.5542 39.0047C71.5542 39.0047 65.6378 39.325 61.2147 43.6587C56.622 48.1619 56.1085 52.9572 56.1085 52.9572L40.0269 110.095C39.8997 110.548 40.2389 110.995 40.71 110.995H53.0985C53.4141 110.995 53.6968 110.783 53.7815 110.477L69.9715 52.9525C69.9715 52.9525 70.2588 51.7654 70.598 51.0588C70.9277 50.3664 71.5542 50.3429 71.5542 50.3429H110.241C119.474 50.3429 126.879 42.938 126.879 39.1837V39H71.5542V39.0047Z" fill="url(#paint0_linear_46_77)"/>
<path d="M80.9233 69.5618H107.213C107.213 75.9539 102.022 81.1449 95.6294 81.1449H69.3402C69.3402 74.7527 74.5312 69.5618 80.9233 69.5618Z" fill="url(#paint1_linear_46_77)"/>
<path d="M135.791 55.8071H123.403C123.087 55.8071 122.804 56.0191 122.719 56.3253L110.863 98.324C110.863 98.324 110.482 99.8219 109.653 99.8219H94.4048C85.1722 99.8219 77.7673 107.227 77.7673 110.981V111.165H110.59C110.59 111.165 114.933 111.137 119.276 107.151C123.619 103.171 124.312 99.7748 124.312 99.7748L136.469 56.7068C136.597 56.2546 136.257 55.8071 135.786 55.8071H135.791Z" fill="url(#paint2_linear_46_77)"/>
<path d="M166.786 91.6774V92.2427H162.01V96.6046H166.183V97.1699H162.01V102.125H161.331V91.6727H166.786V91.6774Z" fill="url(#paint3_linear_46_77)"/>
<path d="M180.456 101.57C179.674 101.117 179.062 100.486 178.619 99.6712C178.176 98.8563 177.955 97.9377 177.955 96.9156C177.955 95.8934 178.176 94.9607 178.619 94.1552C179.062 93.345 179.674 92.7138 180.456 92.2663C181.238 91.8141 182.119 91.588 183.094 91.588C184.069 91.588 184.945 91.8141 185.732 92.2663C186.514 92.7185 187.126 93.3497 187.569 94.1552C188.011 94.9654 188.233 95.884 188.233 96.9156C188.233 97.9472 188.011 98.8563 187.569 99.6712C187.126 100.486 186.514 101.117 185.732 101.57C184.95 102.022 184.069 102.248 183.094 102.248C182.119 102.248 181.243 102.022 180.456 101.57ZM185.35 101.07C186.024 100.684 186.551 100.133 186.937 99.4168C187.324 98.7008 187.517 97.8671 187.517 96.9156C187.517 95.9641 187.324 95.1162 186.937 94.4002C186.551 93.6842 186.019 93.1331 185.35 92.7468C184.676 92.3605 183.923 92.1674 183.089 92.1674C182.255 92.1674 181.502 92.3605 180.828 92.7468C180.154 93.1331 179.622 93.6842 179.231 94.4002C178.84 95.1162 178.642 95.9546 178.642 96.9156C178.642 97.8765 178.84 98.7008 179.231 99.4168C179.622 100.133 180.154 100.684 180.828 101.07C181.502 101.456 182.255 101.65 183.089 101.65C183.923 101.65 184.676 101.456 185.35 101.07Z" fill="url(#paint4_linear_46_77)"/>
<path d="M205.921 91.6774V92.2426H202.906V102.13H202.228V92.2426H199.213V91.6774H205.916H205.921Z" fill="url(#paint5_linear_46_77)"/>
<path d="M219.407 101.569C218.625 101.117 218.013 100.486 217.57 99.6711C217.127 98.8562 216.906 97.9377 216.906 96.9155C216.906 95.8933 217.127 94.9606 217.57 94.1551C218.013 93.3449 218.625 92.7137 219.407 92.2662C220.189 91.814 221.07 91.5879 222.045 91.5879C223.02 91.5879 223.896 91.814 224.683 92.2662C225.465 92.7184 226.077 93.3496 226.52 94.1551C226.963 94.9653 227.184 95.8839 227.184 96.9155C227.184 97.9471 226.963 98.8562 226.52 99.6711C226.077 100.486 225.465 101.117 224.683 101.569C223.901 102.022 223.02 102.248 222.045 102.248C221.07 102.248 220.194 102.022 219.407 101.569ZM224.301 101.07C224.975 100.684 225.502 100.133 225.889 99.4167C226.275 98.7008 226.468 97.867 226.468 96.9155C226.468 95.964 226.275 95.1161 225.889 94.4001C225.502 93.6841 224.97 93.133 224.301 92.7467C223.627 92.3605 222.874 92.1673 222.04 92.1673C221.206 92.1673 220.453 92.3605 219.779 92.7467C219.105 93.133 218.573 93.6841 218.182 94.4001C217.791 95.1161 217.593 95.9545 217.593 96.9155C217.593 97.8764 217.791 98.7008 218.182 99.4167C218.573 100.133 219.105 100.684 219.779 101.07C220.453 101.456 221.206 101.65 222.04 101.65C222.874 101.65 223.627 101.456 224.301 101.07ZM223.458 89.3976L220.504 91.2441V90.6929L223.458 88.7428V89.3976Z" fill="url(#paint6_linear_46_77)"/>
<path d="M240.288 101.871C239.775 101.631 239.375 101.31 239.092 100.905C238.805 100.5 238.64 100.048 238.602 99.5487H239.309C239.389 100.095 239.648 100.58 240.086 101.009C240.524 101.438 241.188 101.65 242.083 101.65C242.606 101.65 243.058 101.555 243.444 101.367C243.831 101.179 244.127 100.919 244.339 100.594C244.551 100.269 244.655 99.9067 244.655 99.5063C244.655 99.0023 244.533 98.5972 244.288 98.3004C244.043 98.0036 243.736 97.7776 243.369 97.6315C243.002 97.4855 242.507 97.3253 241.885 97.1558C241.202 96.9768 240.651 96.7978 240.237 96.6188C239.817 96.4398 239.469 96.1666 239.181 95.7944C238.894 95.4223 238.753 94.9136 238.753 94.2682C238.753 93.7736 238.885 93.3167 239.153 92.9069C239.422 92.4971 239.799 92.1721 240.293 91.9319C240.783 91.6916 241.353 91.5739 241.994 91.5739C242.926 91.5739 243.68 91.8 244.255 92.2569C244.829 92.7138 245.168 93.2743 245.277 93.9385H244.551C244.49 93.67 244.358 93.3968 244.151 93.1189C243.944 92.841 243.656 92.6102 243.28 92.4264C242.903 92.2427 242.455 92.1532 241.932 92.1532C241.231 92.1532 240.637 92.3464 240.152 92.7279C239.671 93.1095 239.426 93.6182 239.426 94.2541C239.426 94.7629 239.554 95.1633 239.803 95.4694C240.053 95.7709 240.364 96.0017 240.731 96.1524C241.099 96.3079 241.593 96.4633 242.215 96.6235C242.907 96.8119 243.459 96.9909 243.864 97.1652C244.269 97.3395 244.617 97.6127 244.905 97.9848C245.192 98.3569 245.333 98.861 245.333 99.4969C245.333 99.9632 245.206 100.406 244.956 100.821C244.707 101.235 244.335 101.579 243.85 101.838C243.364 102.102 242.771 102.234 242.078 102.234C241.386 102.234 240.797 102.116 240.284 101.876L240.288 101.871Z" fill="url(#paint7_linear_46_77)"/>
<path d="M263.012 91.6774V92.2426H259.997V102.13H259.319V92.2426H256.304V91.6774H263.007H263.012Z" fill="url(#paint8_linear_46_77)"/>
<path d="M275.038 91.6774V98.2109C275.038 99.3932 275.311 100.26 275.853 100.811C276.394 101.362 277.134 101.635 278.066 101.635C278.999 101.635 279.72 101.362 280.252 100.816C280.784 100.269 281.053 99.4026 281.053 98.2109V91.6774H281.731V98.1967C281.731 99.5581 281.401 100.571 280.737 101.235C280.073 101.899 279.188 102.234 278.071 102.234C276.955 102.234 276.06 101.899 275.381 101.23C274.703 100.561 274.364 99.5487 274.364 98.2015V91.6821H275.042L275.038 91.6774ZM279.329 89.3976L276.375 91.2441V90.6929L279.329 88.7428V89.3976Z" fill="url(#paint9_linear_46_77)"/>
<path d="M301.035 93.0576C302.005 93.9809 302.49 95.2668 302.49 96.9155C302.49 98.5642 302.005 99.8454 301.035 100.755C300.064 101.668 298.689 102.125 296.899 102.125H293.931V91.6727H296.899C298.684 91.6727 300.064 92.1344 301.035 93.0576ZM300.545 100.331C301.379 99.511 301.793 98.371 301.793 96.9155C301.793 95.46 301.374 94.3012 300.545 93.4769C299.711 92.6525 298.496 92.2427 296.899 92.2427H294.61V101.56H296.899C298.496 101.56 299.711 101.15 300.545 100.331Z" fill="url(#paint10_linear_46_77)"/>
<path d="M315.011 91.6774V102.13H314.333V91.6774H315.011Z" fill="url(#paint11_linear_46_77)"/>
<path d="M329.373 101.569C328.591 101.117 327.979 100.486 327.536 99.6711C327.093 98.8562 326.872 97.9377 326.872 96.9155C326.872 95.8933 327.093 94.9606 327.536 94.1551C327.979 93.3449 328.591 92.7137 329.373 92.2662C330.155 91.814 331.036 91.5879 332.011 91.5879C332.986 91.5879 333.862 91.814 334.649 92.2662C335.431 92.7184 336.043 93.3496 336.486 94.1551C336.929 94.9653 337.15 95.8839 337.15 96.9155C337.15 97.9471 336.929 98.8562 336.486 99.6711C336.043 100.486 335.431 101.117 334.649 101.569C333.867 102.022 332.986 102.248 332.011 102.248C331.036 102.248 330.16 102.022 329.373 101.569ZM334.267 101.07C334.941 100.684 335.469 100.133 335.855 99.4167C336.241 98.7008 336.434 97.867 336.434 96.9155C336.434 95.964 336.241 95.1161 335.855 94.4001C335.469 93.6841 334.936 93.133 334.267 92.7467C333.594 92.3605 332.84 92.1673 332.006 92.1673C331.173 92.1673 330.419 92.3605 329.745 92.7467C329.072 93.133 328.539 93.6841 328.148 94.4001C327.758 95.1161 327.56 95.9545 327.56 96.9155C327.56 97.8764 327.758 98.7008 328.148 99.4167C328.539 100.133 329.072 100.684 329.745 101.07C330.419 101.456 331.173 101.65 332.006 101.65C332.84 101.65 333.594 101.456 334.267 101.07ZM333.424 89.3976L330.471 91.2441V90.6929L333.424 88.7428V89.3976Z" fill="url(#paint12_linear_46_77)"/>
<path d="M176.405 48.2279V51.3887H165.533V58.3554H174.007V61.5162H165.533V71.851H161.331V48.2279H176.4H176.405Z" fill="url(#paint13_linear_46_77)"/>
<path d="M197.593 67.0227H186.872L185.03 71.851H180.644L189.82 48.1902H194.682L203.858 71.851H199.434L197.593 67.0227ZM196.41 63.862L192.246 52.8818L188.044 63.862H196.41Z" fill="url(#paint14_linear_46_77)"/>
<path d="M222.978 71.851L217.08 62.4018H213.872V71.851H209.67V48.2279H218.512C220.476 48.2279 222.139 48.5435 223.505 49.1794C224.866 49.8153 225.889 50.6632 226.562 51.7278C227.241 52.7924 227.575 53.9841 227.575 55.2983C227.575 56.8387 227.09 58.2377 226.119 59.4954C225.149 60.7531 223.656 61.6104 221.644 62.0626L227.98 71.851H222.968H222.978ZM213.877 59.307H218.521C220.095 59.307 221.277 58.9443 222.078 58.2189C222.879 57.4934 223.274 56.5184 223.274 55.2936C223.274 54.0689 222.879 53.1127 222.097 52.4202C221.31 51.7278 220.118 51.3839 218.521 51.3839H213.877V59.3023V59.307Z" fill="url(#paint15_linear_46_77)"/>
<path d="M250.246 67.0227H239.525L237.684 71.851H233.298L242.474 48.1902H247.335L256.511 71.851H252.088L250.246 67.0227ZM249.069 63.862L244.905 52.8818L240.703 63.862H249.069Z" fill="url(#paint16_linear_46_77)"/>
<path d="M280.865 55.0251C280.2 53.8475 279.282 52.9572 278.104 52.3543C276.922 51.7561 275.561 51.4546 274.015 51.4546C272.32 51.4546 270.808 51.8079 269.484 52.5097C268.156 53.2116 267.119 54.2102 266.37 55.5009C265.621 56.7916 265.249 58.2895 265.249 59.9853C265.249 61.6811 265.621 63.1884 266.37 64.4885C267.119 65.7933 268.156 66.7966 269.484 67.4985C270.812 68.2004 272.32 68.5537 274.015 68.5537C276.3 68.5537 278.156 67.9648 279.579 66.7872C281.001 65.6096 281.873 64.0127 282.193 61.9919H272.579V58.8972H286.691V61.9213C286.423 63.7584 285.716 65.4447 284.572 66.9851C283.432 68.5254 281.943 69.7548 280.111 70.6734C278.278 71.5919 276.248 72.0488 274.015 72.0488C271.608 72.0488 269.409 71.5354 267.416 70.5038C265.428 69.4722 263.85 68.0402 262.682 66.2031C261.514 64.366 260.934 62.2934 260.934 59.9806C260.934 57.6677 261.519 55.5951 262.682 53.758C263.846 51.9209 265.433 50.4889 267.435 49.4573C269.437 48.4258 271.632 47.9076 274.015 47.9076C276.743 47.9076 279.164 48.5247 281.293 49.7588C283.418 50.993 284.958 52.7453 285.914 55.011H280.865V55.0251Z" fill="url(#paint17_linear_46_77)"/>
<path d="M339.011 68.7232H347.669V71.851H334.809V48.2279H339.011V68.7279V68.7232Z" fill="url(#paint18_linear_46_77)"/>
<path d="M384.331 71.2575C382.955 70.7017 381.872 69.915 381.085 68.8928C380.298 67.8707 379.907 66.6836 379.907 65.3223H384.406C384.505 66.3398 384.938 67.1829 385.715 67.8377C386.488 68.4924 387.576 68.8222 388.975 68.8222C390.374 68.8222 391.552 68.5019 392.367 67.8518C393.177 67.2065 393.582 66.3727 393.582 65.3553C393.582 64.5639 393.332 63.9186 392.828 63.4192C392.324 62.9199 391.698 62.5337 390.949 62.2652C390.2 61.992 389.163 61.6999 387.835 61.3796C386.163 60.9698 384.806 60.5553 383.761 60.1408C382.715 59.7215 381.825 59.0668 381.09 58.1859C380.355 57.305 379.983 56.1227 379.983 54.653C379.983 53.2917 380.35 52.1047 381.09 51.0825C381.829 50.0603 382.861 49.2784 384.184 48.7367C385.513 48.195 387.044 47.9218 388.791 47.9218C391.274 47.9218 393.304 48.4917 394.891 49.6364C396.474 50.781 397.355 52.3496 397.525 54.3421H392.885C392.809 53.4801 392.371 52.7453 391.556 52.1329C390.746 51.5206 389.677 51.2144 388.353 51.2144C387.147 51.2144 386.168 51.497 385.405 52.067C384.641 52.6322 384.265 53.4472 384.265 54.5164C384.265 55.2418 384.505 55.8354 384.981 56.3017C385.456 56.768 386.069 57.1355 386.804 57.4087C387.543 57.6819 388.546 57.9739 389.828 58.2942C391.523 58.7229 392.904 59.1563 393.973 59.5849C395.042 60.0183 395.951 60.6778 396.7 61.5727C397.449 62.4677 397.826 63.6642 397.826 65.1574C397.826 66.3586 397.477 67.4891 396.776 68.5584C396.078 69.623 395.056 70.4803 393.718 71.1256C392.381 71.7709 390.803 72.096 388.984 72.096C387.265 72.096 385.715 71.8181 384.345 71.2622L384.331 71.2575Z" fill="url(#paint19_linear_46_77)"/>
<path d="M408.688 68.4877H420.592V71.851H403.714V68.8269L415.58 51.5912H403.714V48.2279H420.592V51.252L408.688 68.4877Z" fill="url(#paint20_linear_46_77)"/>
<path d="M431.237 68.7232H439.895V71.851H427.036V48.2279H431.237V68.7279V68.7232Z" fill="url(#paint21_linear_46_77)"/>
<path d="M369.436 58.2424L367.274 63.862H358.908H358.865L364.9 48.1902H360.674L351.498 71.851H355.884L357.726 67.0227H368.451L370.293 71.851H374.716L369.436 58.2424Z" fill="url(#paint22_linear_46_77)"/>
<path d="M466.736 51.8551L465.012 56.3301C465.459 57.4229 465.69 58.6382 465.69 59.9854C465.69 61.7283 465.313 63.2639 464.564 64.5923C463.815 65.9206 462.779 66.9381 461.451 67.6494C460.122 68.3654 458.615 68.7234 456.919 68.7234C455.223 68.7234 453.711 68.3654 452.388 67.6494C451.059 66.9381 450.023 65.9159 449.274 64.5923C448.525 63.2639 448.153 61.733 448.153 59.9854C448.153 58.2378 448.525 56.7116 449.274 55.3974C450.023 54.0832 451.059 53.0751 452.388 52.3733C453.235 51.9258 454.163 51.6384 455.157 51.4736L456.523 47.9313C454.295 47.9878 452.232 48.4918 450.343 49.4669C448.341 50.4985 446.759 51.9305 445.59 53.7676C444.422 55.6047 443.843 57.6773 443.843 59.9901C443.843 62.303 444.427 64.3803 445.59 66.2268C446.759 68.0733 448.341 69.5147 450.343 70.5463C452.345 71.5779 454.54 72.0961 456.924 72.0961C459.307 72.0961 461.535 71.5826 463.537 70.5463C465.539 69.5147 467.117 68.078 468.271 66.2268C469.425 64.3803 470 62.2983 470 59.9901C470 57.682 469.421 55.6047 468.271 53.7676C467.829 53.0657 467.306 52.4392 466.74 51.8551H466.736Z" fill="url(#paint23_linear_46_77)"/>
<path d="M314.286 51.9917L312.524 56.5703C312.91 57.6019 313.113 58.7371 313.113 59.9901C313.113 61.733 312.736 63.2686 311.987 64.597C311.238 65.9253 310.202 66.9428 308.873 67.6541C307.545 68.3701 306.037 68.7281 304.342 68.7281C302.646 68.7281 301.134 68.3701 299.81 67.6541C298.482 66.9428 297.446 65.9206 296.697 64.597C295.948 63.2686 295.575 61.7377 295.575 59.9901C295.575 58.2425 295.948 56.7163 296.697 55.4021C297.446 54.0879 298.482 53.0798 299.81 52.378C300.71 51.9022 301.704 51.6008 302.778 51.4453L304.13 47.9313C301.831 47.9595 299.707 48.473 297.766 49.4716C295.764 50.5032 294.181 51.9352 293.013 53.7723C291.845 55.6094 291.265 57.682 291.265 59.9948C291.265 62.3077 291.849 64.385 293.013 66.2315C294.181 68.078 295.764 69.5194 297.766 70.551C299.768 71.5826 301.958 72.1008 304.342 72.1008C306.725 72.1008 308.953 71.5873 310.955 70.551C312.957 69.5194 314.535 68.0827 315.689 66.2315C316.843 64.385 317.418 62.303 317.418 59.9948C317.418 57.6867 316.839 55.6094 315.689 53.7723C315.279 53.1222 314.799 52.5428 314.286 51.9964V51.9917Z" fill="url(#paint24_linear_46_77)"/>
<defs>
<linearGradient id="paint0_linear_46_77" x1="25.3302" y1="66.3255" x2="233.84" y2="97.2734" gradientUnits="userSpaceOnUse">
<stop stop-color="#C1B38D"/>
<stop offset="0.28" stop-color="#D4CCB5"/>
<stop offset="0.3" stop-color="#CEC6AE"/>
<stop offset="0.39" stop-color="#B6AD93"/>
<stop offset="0.47" stop-color="#A59C7F"/>
<stop offset="0.56" stop-color="#9B9172"/>
<stop offset="0.65" stop-color="#988E6F"/>
<stop offset="1" stop-color="#7F765E"/>
</linearGradient>
<linearGradient id="paint1_linear_46_77" x1="25.3773" y1="66.0195" x2="233.887" y2="96.9674" gradientUnits="userSpaceOnUse">
<stop stop-color="#C1B38D"/>
<stop offset="0.28" stop-color="#D4CCB5"/>
<stop offset="0.3" stop-color="#CEC6AE"/>
<stop offset="0.39" stop-color="#B6AD93"/>
<stop offset="0.47" stop-color="#A59C7F"/>
<stop offset="0.56" stop-color="#9B9172"/>
<stop offset="0.65" stop-color="#988E6F"/>
<stop offset="1" stop-color="#7F765E"/>
</linearGradient>
<linearGradient id="paint2_linear_46_77" x1="24.5954" y1="71.2811" x2="233.105" y2="102.229" gradientUnits="userSpaceOnUse">
<stop stop-color="#C1B38D"/>
<stop offset="0.28" stop-color="#D4CCB5"/>
<stop offset="0.3" stop-color="#CEC6AE"/>
<stop offset="0.39" stop-color="#B6AD93"/>
<stop offset="0.47" stop-color="#A59C7F"/>
<stop offset="0.56" stop-color="#9B9172"/>
<stop offset="0.65" stop-color="#988E6F"/>
<stop offset="1" stop-color="#7F765E"/>
</linearGradient>
<linearGradient id="paint3_linear_46_77" x1="166.301" y1="97.2311" x2="374.806" y2="128.184" gradientUnits="userSpaceOnUse">
<stop stop-color="#C1B38D"/>
<stop offset="0.28" stop-color="#D4CCB5"/>
<stop offset="0.3" stop-color="#CEC6AE"/>
<stop offset="0.39" stop-color="#B6AD93"/>
<stop offset="0.47" stop-color="#A59C7F"/>
<stop offset="0.56" stop-color="#9B9172"/>
<stop offset="0.65" stop-color="#988E6F"/>
<stop offset="1" stop-color="#7F765E"/>
</linearGradient>
<linearGradient id="paint4_linear_46_77" x1="166.706" y1="94.485" x2="375.216" y2="125.433" gradientUnits="userSpaceOnUse">
<stop stop-color="#C1B38D"/>
<stop offset="0.28" stop-color="#D4CCB5"/>
<stop offset="0.3" stop-color="#CEC6AE"/>
<stop offset="0.39" stop-color="#B6AD93"/>
<stop offset="0.47" stop-color="#A59C7F"/>
<stop offset="0.56" stop-color="#9B9172"/>
<stop offset="0.65" stop-color="#988E6F"/>
<stop offset="1" stop-color="#7F765E"/>
</linearGradient>
<linearGradient id="paint5_linear_46_77" x1="167.163" y1="91.423" x2="375.673" y2="122.371" gradientUnits="userSpaceOnUse">
<stop stop-color="#C1B38D"/>
<stop offset="0.28" stop-color="#D4CCB5"/>
<stop offset="0.3" stop-color="#CEC6AE"/>
<stop offset="0.39" stop-color="#B6AD93"/>
<stop offset="0.47" stop-color="#A59C7F"/>
<stop offset="0.56" stop-color="#9B9172"/>
<stop offset="0.65" stop-color="#988E6F"/>
<stop offset="1" stop-color="#7F765E"/>
</linearGradient>
<linearGradient id="paint6_linear_46_77" x1="167.766" y1="87.3626" x2="376.271" y2="118.315" gradientUnits="userSpaceOnUse">
<stop stop-color="#C1B38D"/>
<stop offset="0.28" stop-color="#D4CCB5"/>
<stop offset="0.3" stop-color="#CEC6AE"/>
<stop offset="0.39" stop-color="#B6AD93"/>
<stop offset="0.47" stop-color="#A59C7F"/>
<stop offset="0.56" stop-color="#9B9172"/>
<stop offset="0.65" stop-color="#988E6F"/>
<stop offset="1" stop-color="#7F765E"/>
</linearGradient>
<linearGradient id="paint7_linear_46_77" x1="167.982" y1="85.9071" x2="376.487" y2="116.86" gradientUnits="userSpaceOnUse">
<stop stop-color="#C1B38D"/>
<stop offset="0.28" stop-color="#D4CCB5"/>
<stop offset="0.3" stop-color="#CEC6AE"/>
<stop offset="0.39" stop-color="#B6AD93"/>
<stop offset="0.47" stop-color="#A59C7F"/>
<stop offset="0.56" stop-color="#9B9172"/>
<stop offset="0.65" stop-color="#988E6F"/>
<stop offset="1" stop-color="#7F765E"/>
</linearGradient>
<linearGradient id="paint8_linear_46_77" x1="168.392" y1="83.1278" x2="376.902" y2="114.081" gradientUnits="userSpaceOnUse">
<stop stop-color="#C1B38D"/>
<stop offset="0.28" stop-color="#D4CCB5"/>
<stop offset="0.3" stop-color="#CEC6AE"/>
<stop offset="0.39" stop-color="#B6AD93"/>
<stop offset="0.47" stop-color="#A59C7F"/>
<stop offset="0.56" stop-color="#9B9172"/>
<stop offset="0.65" stop-color="#988E6F"/>
<stop offset="1" stop-color="#7F765E"/>
</linearGradient>
<linearGradient id="paint9_linear_46_77" x1="168.972" y1="79.2276" x2="377.481" y2="110.176" gradientUnits="userSpaceOnUse">
<stop stop-color="#C1B38D"/>
<stop offset="0.28" stop-color="#D4CCB5"/>
<stop offset="0.3" stop-color="#CEC6AE"/>
<stop offset="0.39" stop-color="#B6AD93"/>
<stop offset="0.47" stop-color="#A59C7F"/>
<stop offset="0.56" stop-color="#9B9172"/>
<stop offset="0.65" stop-color="#988E6F"/>
<stop offset="1" stop-color="#7F765E"/>
</linearGradient>
<linearGradient id="paint10_linear_46_77" x1="169.137" y1="78.1065" x2="377.646" y2="109.054" gradientUnits="userSpaceOnUse">
<stop stop-color="#C1B38D"/>
<stop offset="0.28" stop-color="#D4CCB5"/>
<stop offset="0.3" stop-color="#CEC6AE"/>
<stop offset="0.39" stop-color="#B6AD93"/>
<stop offset="0.47" stop-color="#A59C7F"/>
<stop offset="0.56" stop-color="#9B9172"/>
<stop offset="0.65" stop-color="#988E6F"/>
<stop offset="1" stop-color="#7F765E"/>
</linearGradient>
<linearGradient id="paint11_linear_46_77" x1="169.546" y1="75.3602" x2="378.056" y2="106.308" gradientUnits="userSpaceOnUse">
<stop stop-color="#C1B38D"/>
<stop offset="0.28" stop-color="#D4CCB5"/>
<stop offset="0.3" stop-color="#CEC6AE"/>
<stop offset="0.39" stop-color="#B6AD93"/>
<stop offset="0.47" stop-color="#A59C7F"/>
<stop offset="0.56" stop-color="#9B9172"/>
<stop offset="0.65" stop-color="#988E6F"/>
<stop offset="1" stop-color="#7F765E"/>
</linearGradient>
<linearGradient id="paint12_linear_46_77" x1="170.135" y1="71.3941" x2="378.645" y2="102.342" gradientUnits="userSpaceOnUse">
<stop stop-color="#C1B38D"/>
<stop offset="0.28" stop-color="#D4CCB5"/>
<stop offset="0.3" stop-color="#CEC6AE"/>
<stop offset="0.39" stop-color="#B6AD93"/>
<stop offset="0.47" stop-color="#A59C7F"/>
<stop offset="0.56" stop-color="#9B9172"/>
<stop offset="0.65" stop-color="#988E6F"/>
<stop offset="1" stop-color="#7F765E"/>
</linearGradient>
<linearGradient id="paint13_linear_46_77" x1="234.683" y1="69.8067" x2="443.193" y2="100.759" gradientUnits="userSpaceOnUse">
<stop stop-color="#C1B38D"/>
<stop offset="0.28" stop-color="#D4CCB5"/>
<stop offset="0.3" stop-color="#CEC6AE"/>
<stop offset="0.39" stop-color="#B6AD93"/>
<stop offset="0.47" stop-color="#A59C7F"/>
<stop offset="0.56" stop-color="#9B9172"/>
<stop offset="0.65" stop-color="#988E6F"/>
<stop offset="1" stop-color="#7F765E"/>
</linearGradient>
<linearGradient id="paint14_linear_46_77" x1="235.088" y1="67.0604" x2="443.598" y2="98.013" gradientUnits="userSpaceOnUse">
<stop stop-color="#C1B38D"/>
<stop offset="0.28" stop-color="#D4CCB5"/>
<stop offset="0.3" stop-color="#CEC6AE"/>
<stop offset="0.39" stop-color="#B6AD93"/>
<stop offset="0.47" stop-color="#A59C7F"/>
<stop offset="0.56" stop-color="#9B9172"/>
<stop offset="0.65" stop-color="#988E6F"/>
<stop offset="1" stop-color="#7F765E"/>
</linearGradient>
<linearGradient id="paint15_linear_46_77" x1="235.672" y1="63.1507" x2="444.177" y2="94.1033" gradientUnits="userSpaceOnUse">
<stop stop-color="#C1B38D"/>
<stop offset="0.28" stop-color="#D4CCB5"/>
<stop offset="0.3" stop-color="#CEC6AE"/>
<stop offset="0.39" stop-color="#B6AD93"/>
<stop offset="0.47" stop-color="#A59C7F"/>
<stop offset="0.56" stop-color="#9B9172"/>
<stop offset="0.65" stop-color="#988E6F"/>
<stop offset="1" stop-color="#7F765E"/>
</linearGradient>
<linearGradient id="paint16_linear_46_77" x1="236.223" y1="59.4153" x2="444.733" y2="90.3632" gradientUnits="userSpaceOnUse">
<stop stop-color="#C1B38D"/>
<stop offset="0.28" stop-color="#D4CCB5"/>
<stop offset="0.3" stop-color="#CEC6AE"/>
<stop offset="0.39" stop-color="#B6AD93"/>
<stop offset="0.47" stop-color="#A59C7F"/>
<stop offset="0.56" stop-color="#9B9172"/>
<stop offset="0.65" stop-color="#988E6F"/>
<stop offset="1" stop-color="#7F765E"/>
</linearGradient>
<linearGradient id="paint17_linear_46_77" x1="236.958" y1="54.4834" x2="445.468" y2="85.4314" gradientUnits="userSpaceOnUse">
<stop stop-color="#C1B38D"/>
<stop offset="0.28" stop-color="#D4CCB5"/>
<stop offset="0.3" stop-color="#CEC6AE"/>
<stop offset="0.39" stop-color="#B6AD93"/>
<stop offset="0.47" stop-color="#A59C7F"/>
<stop offset="0.56" stop-color="#9B9172"/>
<stop offset="0.65" stop-color="#988E6F"/>
<stop offset="1" stop-color="#7F765E"/>
</linearGradient>
<linearGradient id="paint18_linear_46_77" x1="238.306" y1="45.4016" x2="446.815" y2="76.3542" gradientUnits="userSpaceOnUse">
<stop stop-color="#C1B38D"/>
<stop offset="0.28" stop-color="#D4CCB5"/>
<stop offset="0.3" stop-color="#CEC6AE"/>
<stop offset="0.39" stop-color="#B6AD93"/>
<stop offset="0.47" stop-color="#A59C7F"/>
<stop offset="0.56" stop-color="#9B9172"/>
<stop offset="0.65" stop-color="#988E6F"/>
<stop offset="1" stop-color="#7F765E"/>
</linearGradient>
<linearGradient id="paint19_linear_46_77" x1="239.431" y1="37.8225" x2="447.941" y2="68.7704" gradientUnits="userSpaceOnUse">
<stop stop-color="#C1B38D"/>
<stop offset="0.28" stop-color="#D4CCB5"/>
<stop offset="0.3" stop-color="#CEC6AE"/>
<stop offset="0.39" stop-color="#B6AD93"/>
<stop offset="0.47" stop-color="#A59C7F"/>
<stop offset="0.56" stop-color="#9B9172"/>
<stop offset="0.65" stop-color="#988E6F"/>
<stop offset="1" stop-color="#7F765E"/>
</linearGradient>
<linearGradient id="paint20_linear_46_77" x1="239.926" y1="34.4733" x2="448.435" y2="65.4258" gradientUnits="userSpaceOnUse">
<stop stop-color="#C1B38D"/>
<stop offset="0.28" stop-color="#D4CCB5"/>
<stop offset="0.3" stop-color="#CEC6AE"/>
<stop offset="0.39" stop-color="#B6AD93"/>
<stop offset="0.47" stop-color="#A59C7F"/>
<stop offset="0.56" stop-color="#9B9172"/>
<stop offset="0.65" stop-color="#988E6F"/>
<stop offset="1" stop-color="#7F765E"/>
</linearGradient>
<linearGradient id="paint21_linear_46_77" x1="240.293" y1="32.0097" x2="448.803" y2="62.9577" gradientUnits="userSpaceOnUse">
<stop stop-color="#C1B38D"/>
<stop offset="0.28" stop-color="#D4CCB5"/>
<stop offset="0.3" stop-color="#CEC6AE"/>
<stop offset="0.39" stop-color="#B6AD93"/>
<stop offset="0.47" stop-color="#A59C7F"/>
<stop offset="0.56" stop-color="#9B9172"/>
<stop offset="0.65" stop-color="#988E6F"/>
<stop offset="1" stop-color="#7F765E"/>
</linearGradient>
<linearGradient id="paint22_linear_46_77" x1="238.767" y1="42.2927" x2="447.277" y2="73.2453" gradientUnits="userSpaceOnUse">
<stop stop-color="#C1B38D"/>
<stop offset="0.28" stop-color="#D4CCB5"/>
<stop offset="0.3" stop-color="#CEC6AE"/>
<stop offset="0.39" stop-color="#B6AD93"/>
<stop offset="0.47" stop-color="#A59C7F"/>
<stop offset="0.56" stop-color="#9B9172"/>
<stop offset="0.65" stop-color="#988E6F"/>
<stop offset="1" stop-color="#7F765E"/>
</linearGradient>
<linearGradient id="paint23_linear_46_77" x1="240.877" y1="28.0577" x2="449.387" y2="59.0103" gradientUnits="userSpaceOnUse">
<stop stop-color="#C1B38D"/>
<stop offset="0.28" stop-color="#D4CCB5"/>
<stop offset="0.3" stop-color="#CEC6AE"/>
<stop offset="0.39" stop-color="#B6AD93"/>
<stop offset="0.47" stop-color="#A59C7F"/>
<stop offset="0.56" stop-color="#9B9172"/>
<stop offset="0.65" stop-color="#988E6F"/>
<stop offset="1" stop-color="#7F765E"/>
</linearGradient>
<linearGradient id="paint24_linear_46_77" x1="237.594" y1="50.2017" x2="446.099" y2="81.1543" gradientUnits="userSpaceOnUse">
<stop stop-color="#C1B38D"/>
<stop offset="0.28" stop-color="#D4CCB5"/>
<stop offset="0.3" stop-color="#CEC6AE"/>
<stop offset="0.39" stop-color="#B6AD93"/>
<stop offset="0.47" stop-color="#A59C7F"/>
<stop offset="0.56" stop-color="#9B9172"/>
<stop offset="0.65" stop-color="#988E6F"/>
<stop offset="1" stop-color="#7F765E"/>
</linearGradient>
</defs>
</svg>
